LisuBosaMaster-Regular.ufo
<glyph name="exclam" format="2">
  <advance width="285"/>
  <unicode hex="0021"/>
  <outline>
    <contour>
      <point x="143" y="-8" type="curve" smooth="yes"/>
      <point x="177" y="-8"/>
      <point x="205" y="20"/>
      <point x="205" y="55" type="curve" smooth="yes"/>
      <point x="205" y="89"/>
      <point x="177" y="117"/>
      <point x="143" y="117" type="curve" smooth="yes"/>
      <point x="108" y="117"/>
      <point x="80" y="89"/>
      <point x="80" y="55" type="curve" smooth="yes"/>
      <point x="80" y="20"/>
      <point x="108" y="-8"/>
    </contour>
    <contour>
      <point x="180" y="187" type="line"/>
      <point x="105" y="187" type="line"/>
      <point x="89" y="562" type="line"/>
      <point x="195" y="562" type="line"/>
    </contour>
  </outline>
</glyph>
<glyph name="quotedbl" format="2">
  <advance width="335"/>
  <unicode hex="0022"/>
  <outline>
    <contour>
      <point x="45" y="582" type="line"/>
      <point x="135" y="582" type="line"/>
      <point x="119" y="379" type="line"/>
      <point x="61" y="379" type="line"/>
    </contour>
    <contour>
      <point x="199" y="582" type="line"/>
      <point x="290" y="582" type="line"/>
      <point x="273" y="379" type="line"/>
      <point x="215" y="379" type="line"/>
    </contour>
  </outline>
</glyph>
<glyph name="numbersign" format="2">
  <advance width="410"/>
  <unicode hex="0023"/>
  <outline>
    <contour>
      <point x="253" y="215" type="line"/>
      <point x="274" y="328" type="line"/>
      <point x="161" y="328" type="line"/>
      <point x="140" y="215" type="line"/>
    </contour>
    <contour>
      <point x="400" y="215" type="line"/>
      <point x="400" y="155" type="line"/>
      <point x="302" y="155" type="line"/>
      <point x="272" y="-4" type="line"/>
      <point x="212" y="-4" type="line"/>
      <point x="242" y="155" type="line"/>
      <point x="128" y="155" type="line"/>
      <point x="99" y="-4" type="line"/>
      <point x="38" y="-4" type="line"/>
      <point x="69" y="155" type="line"/>
      <point x="10" y="155" type="line"/>
      <point x="10" y="215" type="line"/>
      <point x="80" y="215" type="line"/>
      <point x="101" y="328" type="line"/>
      <point x="10" y="328" type="line"/>
      <point x="10" y="387" type="line"/>
      <point x="111" y="387" type="line"/>
      <point x="140" y="542" type="line"/>
      <point x="200" y="542" type="line"/>
      <point x="171" y="387" type="line"/>
      <point x="285" y="387" type="line"/>
      <point x="314" y="542" type="line"/>
      <point x="374" y="542" type="line"/>
      <point x="345" y="387" type="line"/>
      <point x="400" y="387" type="line"/>
      <point x="400" y="328" type="line"/>
      <point x="334" y="328" type="line"/>
      <point x="314" y="215" type="line"/>
    </contour>
  </outline>
</glyph>
<glyph name="dollar" format="2">
  <advance width="463"/>
  <unicode hex="0024"/>
  <outline>
    <contour>
      <point x="229" y="35" type="curve" smooth="yes"/>
      <point x="190" y="35"/>
      <point x="150" y="40"/>
      <point x="108" y="58" type="curve"/>
      <point x="161" y="23" type="line"/>
      <point x="145" y="94" type="line" smooth="yes"/>
      <point x="134" y="142"/>
      <point x="115" y="155"/>
      <point x="91" y="155" type="curve" smooth="yes"/>
      <point x="69" y="155"/>
      <point x="56" y="144"/>
      <point x="46" y="124" type="curve"/>
      <point x="50" y="44"/>
      <point x="123" y="-8"/>
      <point x="225" y="-8" type="curve" smooth="yes"/>
      <point x="353" y="-8"/>
      <point x="430" y="61"/>
      <point x="430" y="161" type="curve" smooth="yes"/>
      <point x="430" y="233"/>
      <point x="392" y="287"/>
      <point x="265" y="328" type="curve" smooth="yes"/>
      <point x="231" y="339" type="line" smooth="yes"/>
      <point x="166" y="360"/>
      <point x="131" y="387"/>
      <point x="131" y="439" type="curve" smooth="yes"/>
      <point x="131" y="507"/>
      <point x="182" y="539"/>
      <point x="250" y="539" type="curve" smooth="yes"/>
      <point x="278" y="539"/>
      <point x="310" y="534"/>
      <point x="350" y="518" type="curve"/>
      <point x="299" y="553" type="line"/>
      <point x="314" y="484" type="line" smooth="yes"/>
      <point x="325" y="433"/>
      <point x="349" y="420"/>
      <point x="371" y="420" type="curve" smooth="yes"/>
      <point x="390" y="420"/>
      <point x="406" y="430"/>
      <point x="414" y="451" type="curve"/>
      <point x="407" y="531"/>
      <point x="334" y="585"/>
      <point x="240" y="585" type="curve" smooth="yes"/>
      <point x="129" y="585"/>
      <point x="52" y="511"/>
      <point x="52" y="416" type="curve" smooth="yes"/>
      <point x="52" y="330"/>
      <point x="111" y="284"/>
      <point x="208" y="249" type="curve" smooth="yes"/>
      <point x="241" y="237" type="line" smooth="yes"/>
      <point x="319" y="209"/>
      <point x="351" y="192"/>
      <point x="351" y="140" type="curve" smooth="yes"/>
      <point x="351" y="73"/>
      <point x="303" y="35"/>
    </contour>
    <contour>
      <point x="263" y="295" type="line"/>
      <point x="263" y="668" type="line"/>
      <point x="221" y="668" type="line"/>
      <point x="221" y="295" type="line"/>
    </contour>
    <contour>
      <point x="217" y="-85" type="line"/>
      <point x="259" y="-85" type="line"/>
      <point x="259" y="295" type="line"/>
      <point x="217" y="295" type="line"/>
    </contour>
  </outline>
</glyph>
<glyph name="parenleft" format="2">
  <advance width="283"/>
  <unicode hex="0028"/>
  <outline>
    <contour>
      <point x="252" y="-97" type="curve"/>
      <point x="252" y="-162" type="line"/>
      <point x="81" y="-71"/>
      <point x="26" y="47"/>
      <point x="26" y="258" type="curve" smooth="yes"/>
      <point x="26" y="467"/>
      <point x="81" y="589"/>
      <point x="252" y="677" type="curve"/>
      <point x="252" y="612" type="line"/>
      <point x="128" y="542"/>
      <point x="123" y="415"/>
      <point x="123" y="258" type="curve" smooth="yes"/>
      <point x="123" y="100"/>
      <point x="128" y="-27"/>
    </contour>
  </outline>
</glyph>
<glyph name="asterisk" format="2">
  <advance width="410"/>
  <unicode hex="002A"/>
  <outline>
    <contour>
      <point x="213" y="394" type="line"/>
      <point x="213" y="377" type="line"/>
      <point x="368" y="422" type="line"/>
      <point x="337" y="489" type="line"/>
      <point x="186" y="393" type="line"/>
      <point x="219" y="371" type="line"/>
      <point x="243" y="542" type="line"/>
      <point x="169" y="542" type="line"/>
      <point x="191" y="371" type="line"/>
      <point x="223" y="392" type="line"/>
      <point x="73" y="491" type="line"/>
      <point x="43" y="423" type="line"/>
      <point x="197" y="377" type="line"/>
      <point x="197" y="395" type="line"/>
      <point x="43" y="350" type="line"/>
      <point x="73" y="282" type="line"/>
      <point x="223" y="382" type="line"/>
      <point x="191" y="403" type="line"/>
      <point x="169" y="231" type="line"/>
      <point x="243" y="231" type="line"/>
      <point x="219" y="402" type="line"/>
      <point x="186" y="380" type="line"/>
      <point x="337" y="284" type="line"/>
      <point x="368" y="351" type="line"/>
    </contour>
  </outline>
</glyph>
<glyph name="comma" format="2">
  <advance width="252"/>
  <unicode hex="002C"/>
  <outline>
    <contour>
      <point x="51" y="-145" type="line"/>
      <point x="147" y="-125"/>
      <point x="199" y="-52"/>
      <point x="199" y="24" type="curve" smooth="yes"/>
      <point x="199" y="83"/>
      <point x="166" y="119"/>
      <point x="122" y="119" type="curve" smooth="yes"/>
      <point x="82" y="119"/>
      <point x="53" y="91"/>
      <point x="53" y="54" type="curve" smooth="yes"/>
      <point x="53" y="19"/>
      <point x="79" y="-8"/>
      <point x="110" y="-8" type="curve" smooth="yes"/>
      <point x="133" y="-8"/>
      <point x="160" y="10"/>
      <point x="160" y="33" type="curve"/>
      <point x="155" y="33"/>
      <point x="133" y="33"/>
      <point x="126" y="33" type="curve"/>
      <point x="130" y="24"/>
      <point x="130" y="11"/>
      <point x="130" y="-15" type="curve" smooth="yes"/>
      <point x="130" y="-52"/>
      <point x="99" y="-101"/>
      <point x="43" y="-110" type="curve"/>
    </contour>
  </outline>
</glyph>
<glyph name="period" format="2">
  <advance width="205"/>
  <unicode hex="002E"/>
  <outline>
    <contour>
      <point x="103" y="-8" type="curve" smooth="yes"/>
      <point x="138" y="-8"/>
      <point x="167" y="17"/>
      <point x="167" y="52" type="curve" smooth="yes"/>
      <point x="167" y="88"/>
      <point x="138" y="112"/>
      <point x="103" y="112" type="curve" smooth="yes"/>
      <point x="67" y="112"/>
      <point x="40" y="88"/>
      <point x="40" y="52" type="curve" smooth="yes"/>
      <point x="40" y="17"/>
      <point x="67" y="-8"/>
    </contour>
  </outline>
</glyph>
<glyph name="slash" format="2">
  <advance width="279"/>
  <unicode hex="002F"/>
  <outline>
    <contour>
      <point x="237" y="650" type="line"/>
      <point x="301" y="650" type="line"/>
      <point x="42" y="-100" type="line"/>
      <point x="-23" y="-100" type="line"/>
    </contour>
  </outline>
</glyph>
<glyph name="zero" format="2">
  <advance width="434"/>
  <unicode hex="0030"/>
  <outline>
    <contour>
      <point x="218" y="-8" type="curve" smooth="yes"/>
      <point x="344" y="-8"/>
      <point x="394" y="126"/>
      <point x="394" y="266" type="curve" smooth="yes"/>
      <point x="394" y="409"/>
      <point x="344" y="538"/>
      <point x="217" y="538" type="curve" smooth="yes"/>
      <point x="91" y="538"/>
      <point x="40" y="403"/>
      <point x="40" y="265" type="curve" smooth="yes"/>
      <point x="40" y="130"/>
      <point x="89" y="-8"/>
    </contour>
    <contour>
      <point x="217" y="67" type="curve" smooth="yes"/>
      <point x="154" y="67"/>
      <point x="117" y="130"/>
      <point x="117" y="265" type="curve" smooth="yes"/>
      <point x="117" y="400"/>
      <point x="153" y="462"/>
      <point x="216" y="462" type="curve" smooth="yes"/>
      <point x="281" y="462"/>
      <point x="318" y="400"/>
      <point x="318" y="265" type="curve" smooth="yes"/>
      <point x="318" y="130"/>
      <point x="281" y="67"/>
    </contour>
  </outline>
</glyph>
<glyph name="two" format="2">
  <advance width="434"/>
  <unicode hex="0032"/>
  <outline>
    <contour>
      <point x="390" y="0" type="line"/>
      <point x="44" y="0" type="line"/>
      <point x="44" y="50" type="line" smooth="yes"/>
      <point x="44" y="77"/>
      <point x="67" y="114"/>
      <point x="114" y="155" type="curve" smooth="yes"/>
      <point x="143" y="180"/>
      <point x="185" y="217"/>
      <point x="242" y="268" type="curve" smooth="yes"/>
      <point x="290" y="311"/>
      <point x="311" y="341"/>
      <point x="311" y="388" type="curve" smooth="yes"/>
      <point x="311" y="432"/>
      <point x="270" y="463"/>
      <point x="222" y="463" type="curve" smooth="yes"/>
      <point x="169" y="463"/>
      <point x="127" y="430"/>
      <point x="122" y="376" type="curve"/>
      <point x="48" y="383" type="line"/>
      <point x="57" y="478"/>
      <point x="130" y="538"/>
      <point x="226" y="538" type="curve" smooth="yes"/>
      <point x="311" y="538"/>
      <point x="390" y="481"/>
      <point x="390" y="392" type="curve" smooth="yes"/>
      <point x="390" y="345"/>
      <point x="376" y="296"/>
      <point x="333" y="253" type="curve" smooth="yes"/>
      <point x="315" y="235"/>
      <point x="279" y="201"/>
      <point x="220" y="146" type="curve" smooth="yes"/>
      <point x="196" y="123"/>
      <point x="171" y="100"/>
      <point x="147" y="77" type="curve"/>
      <point x="390" y="77" type="line"/>
    </contour>
  </outline>
</glyph>
<glyph name="three" format="2">
  <advance width="434"/>
  <unicode hex="0033"/>
  <outline>
    <contour>
      <point x="390" y="163" type="curve" smooth="yes"/>
      <point x="390" y="67"/>
      <point x="309" y="-7"/>
      <point x="213" y="-7" type="curve" smooth="yes"/>
      <point x="118" y="-7"/>
      <point x="53" y="58"/>
      <point x="44" y="153" type="curve"/>
      <point x="124" y="165" type="line"/>
      <point x="128" y="100"/>
      <point x="157" y="67"/>
      <point x="213" y="67" type="curve" smooth="yes"/>
      <point x="265" y="67"/>
      <point x="311" y="108"/>
      <point x="311" y="160" type="curve" smooth="yes"/>
      <point x="311" y="212"/>
      <point x="270" y="247"/>
      <point x="217" y="247" type="curve" smooth="yes"/>
      <point x="210" y="247"/>
      <point x="176" y="246"/>
      <point x="170" y="245" type="curve"/>
      <point x="170" y="310" type="line"/>
      <point x="179" y="309"/>
      <point x="191" y="309"/>
      <point x="207" y="309" type="curve" smooth="yes"/>
      <point x="256" y="309"/>
      <point x="288" y="345"/>
      <point x="288" y="396" type="curve" smooth="yes"/>
      <point x="288" y="435"/>
      <point x="251" y="463"/>
      <point x="207" y="463" type="curve" smooth="yes"/>
      <point x="159" y="463"/>
      <point x="128" y="436"/>
      <point x="116" y="385" type="curve"/>
      <point x="45" y="394" type="line"/>
      <point x="61" y="477"/>
      <point x="127" y="538"/>
      <point x="210" y="538" type="curve" smooth="yes"/>
      <point x="301" y="538"/>
      <point x="366" y="475"/>
      <point x="366" y="394" type="curve" smooth="yes"/>
      <point x="366" y="353"/>
      <point x="348" y="317"/>
      <point x="311" y="287" type="curve"/>
      <point x="364" y="258"/>
      <point x="390" y="216"/>
    </contour>
  </outline>
</glyph>
<glyph name="four" format="2">
  <advance width="434"/>
  <unicode hex="0034"/>
  <outline>
    <contour>
      <point x="406" y="121" type="line"/>
      <point x="345" y="121" type="line"/>
      <point x="345" y="0" type="line"/>
      <point x="268" y="0" type="line"/>
      <point x="268" y="121" type="line"/>
      <point x="30" y="121" type="line"/>
      <point x="30" y="192" type="line"/>
      <point x="274" y="531" type="line"/>
      <point x="345" y="531" type="line"/>
      <point x="345" y="198" type="line"/>
      <point x="406" y="198" type="line"/>
    </contour>
    <contour>
      <point x="268" y="153" type="line"/>
      <point x="268" y="445" type="line"/>
      <point x="294" y="436" type="line"/>
      <point x="95" y="162" type="line"/>
      <point x="76" y="198" type="line"/>
      <point x="313" y="198" type="line"/>
    </contour>
  </outline>
</glyph>
<glyph name="five" format="2">
  <advance width="434"/>
  <unicode hex="0035"/>
  <outline>
    <contour>
      <point x="394" y="179" type="curve" smooth="yes"/>
      <point x="394" y="75"/>
      <point x="322" y="-8"/>
      <point x="215" y="-8" type="curve" smooth="yes"/>
      <point x="140" y="-8"/>
      <point x="86" y="30"/>
      <point x="53" y="107" type="curve"/>
      <point x="131" y="128" type="line"/>
      <point x="144" y="91"/>
      <point x="182" y="64"/>
      <point x="221" y="64" type="curve" smooth="yes"/>
      <point x="279" y="64"/>
      <point x="317" y="117"/>
      <point x="317" y="174" type="curve" smooth="yes"/>
      <point x="317" y="237"/>
      <point x="278" y="290"/>
      <point x="217" y="290" type="curve" smooth="yes"/>
      <point x="186" y="290"/>
      <point x="158" y="274"/>
      <point x="133" y="243" type="curve"/>
      <point x="60" y="253" type="line"/>
      <point x="110" y="531" type="line"/>
      <point x="375" y="531" type="line"/>
      <point x="375" y="453" type="line"/>
      <point x="173" y="453" type="line"/>
      <point x="153" y="344" type="line"/>
      <point x="186" y="359"/>
      <point x="213" y="366"/>
      <point x="234" y="366" type="curve" smooth="yes"/>
      <point x="331" y="366"/>
      <point x="394" y="278"/>
    </contour>
  </outline>
</glyph>
<glyph name="six" format="2">
  <advance width="434"/>
  <unicode hex="0036"/>
  <outline>
    <contour>
      <point x="393" y="164" type="curve" smooth="yes"/>
      <point x="393" y="63"/>
      <point x="320" y="-8"/>
      <point x="220" y="-8" type="curve" smooth="yes"/>
      <point x="93" y="-8"/>
      <point x="45" y="91"/>
      <point x="45" y="237" type="curve" smooth="yes"/>
      <point x="45" y="409"/>
      <point x="95" y="538"/>
      <point x="233" y="538" type="curve" smooth="yes"/>
      <point x="308" y="538"/>
      <point x="365" y="494"/>
      <point x="385" y="422" type="curve"/>
      <point x="309" y="401" type="line"/>
      <point x="300" y="437"/>
      <point x="269" y="463"/>
      <point x="233" y="463" type="curve" smooth="yes"/>
      <point x="165" y="463"/>
      <point x="130" y="391"/>
      <point x="125" y="294" type="curve"/>
      <point x="156" y="323"/>
      <point x="191" y="338"/>
      <point x="230" y="338" type="curve" smooth="yes"/>
      <point x="327" y="338"/>
      <point x="393" y="263"/>
    </contour>
    <contour>
      <point x="315" y="166" type="curve" smooth="yes"/>
      <point x="315" y="219"/>
      <point x="277" y="264"/>
      <point x="225" y="264" type="curve" smooth="yes"/>
      <point x="172" y="264"/>
      <point x="133" y="224"/>
      <point x="133" y="164" type="curve" smooth="yes"/>
      <point x="133" y="106"/>
      <point x="171" y="65"/>
      <point x="223" y="65" type="curve" smooth="yes"/>
      <point x="278" y="65"/>
      <point x="315" y="110"/>
    </contour>
  </outline>
</glyph>
<glyph name="seven" format="2">
  <advance width="434"/>
  <unicode hex="0037"/>
  <outline>
    <contour>
      <point x="393" y="469" type="line"/>
      <point x="280" y="326"/>
      <point x="218" y="172"/>
      <point x="204" y="0" type="curve"/>
      <point x="123" y="0" type="line"/>
      <point x="136" y="171"/>
      <point x="189" y="318"/>
      <point x="283" y="449" type="curve"/>
      <point x="55" y="449" type="line"/>
      <point x="55" y="531" type="line"/>
      <point x="393" y="531" type="line"/>
    </contour>
  </outline>
</glyph>
<glyph name="eight" format="2">
  <advance width="434"/>
  <unicode hex="0038"/>
  <outline>
    <contour>
      <point x="391" y="146" type="curve" smooth="yes"/>
      <point x="391" y="55"/>
      <point x="309" y="-10"/>
      <point x="217" y="-10" type="curve" smooth="yes"/>
      <point x="127" y="-10"/>
      <point x="43" y="55"/>
      <point x="43" y="148" type="curve" smooth="yes"/>
      <point x="43" y="208"/>
      <point x="69" y="254"/>
      <point x="122" y="287" type="curve"/>
      <point x="84" y="314"/>
      <point x="65" y="351"/>
      <point x="65" y="398" type="curve" smooth="yes"/>
      <point x="65" y="479"/>
      <point x="135" y="538"/>
      <point x="216" y="538" type="curve" smooth="yes"/>
      <point x="300" y="538"/>
      <point x="370" y="479"/>
      <point x="370" y="396" type="curve" smooth="yes"/>
      <point x="370" y="354"/>
      <point x="351" y="317"/>
      <point x="314" y="284" type="curve"/>
      <point x="365" y="252"/>
      <point x="391" y="206"/>
    </contour>
    <contour>
      <point x="292" y="393" type="curve" smooth="yes"/>
      <point x="292" y="436"/>
      <point x="260" y="469"/>
      <point x="217" y="469" type="curve" smooth="yes"/>
      <point x="174" y="469"/>
      <point x="141" y="436"/>
      <point x="141" y="393" type="curve" smooth="yes"/>
      <point x="141" y="353"/>
      <point x="175" y="318"/>
      <point x="215" y="318" type="curve" smooth="yes"/>
      <point x="258" y="318"/>
      <point x="292" y="350"/>
    </contour>
    <contour>
      <point x="313" y="152" type="curve" smooth="yes"/>
      <point x="313" y="207"/>
      <point x="271" y="249"/>
      <point x="216" y="249" type="curve" smooth="yes"/>
      <point x="163" y="249"/>
      <point x="120" y="207"/>
      <point x="120" y="154" type="curve" smooth="yes"/>
      <point x="120" y="101"/>
      <point x="165" y="59"/>
      <point x="218" y="59" type="curve" smooth="yes"/>
      <point x="269" y="59"/>
      <point x="313" y="101"/>
    </contour>
  </outline>
</glyph>
<glyph name="nine" format="2">
  <advance width="434"/>
  <unicode hex="0039"/>
  <outline>
    <contour>
      <point x="392" y="279" type="curve" smooth="yes"/>
      <point x="392" y="91"/>
      <point x="329" y="-8"/>
      <point x="204" y="-8" type="curve" smooth="yes"/>
      <point x="125" y="-8"/>
      <point x="63" y="39"/>
      <point x="55" y="115" type="curve"/>
      <point x="128" y="123" type="line"/>
      <point x="132" y="90"/>
      <point x="170" y="64"/>
      <point x="203" y="64" type="curve" smooth="yes"/>
      <point x="278" y="64"/>
      <point x="315" y="149"/>
      <point x="315" y="229" type="curve" smooth="yes"/>
      <point x="315" y="241" type="line"/>
      <point x="289" y="210"/>
      <point x="252" y="195"/>
      <point x="203" y="195" type="curve" smooth="yes"/>
      <point x="108" y="195"/>
      <point x="45" y="269"/>
      <point x="45" y="359" type="curve" smooth="yes"/>
      <point x="45" y="456"/>
      <point x="114" y="538"/>
      <point x="210" y="538" type="curve" smooth="yes"/>
      <point x="341" y="538"/>
      <point x="392" y="426"/>
    </contour>
    <contour>
      <point x="304" y="364" type="curve" smooth="yes"/>
      <point x="304" y="421"/>
      <point x="265" y="467"/>
      <point x="209" y="467" type="curve" smooth="yes"/>
      <point x="156" y="467"/>
      <point x="120" y="419"/>
      <point x="120" y="364" type="curve" smooth="yes"/>
      <point x="120" y="312"/>
      <point x="156" y="264"/>
      <point x="212" y="264" type="curve" smooth="yes"/>
      <point x="264" y="264"/>
      <point x="304" y="314"/>
    </contour>
  </outline>
</glyph>
<glyph name="greater" format="2">
  <advance width="489"/>
  <unicode hex="003E"/>
  <outline>
    <contour>
      <point x="438" y="325" type="line"/>
      <point x="80" y="531" type="line"/>
      <point x="51" y="478" type="line"/>
      <point x="386" y="294" type="line"/>
      <point x="386" y="310" type="line"/>
      <point x="51" y="126" type="line"/>
      <point x="80" y="73" type="line"/>
      <point x="438" y="279" type="line"/>
    </contour>
  </outline>
</glyph>
<glyph name="B" format="2">
  <advance width="581"/>
  <unicode hex="0042"/>
  <anchor x="276" y="634" name="aboveUC"/>
  <anchor x="305" y="-20" name="belowLC"/>
  <outline>
    <contour>
      <point x="39" y="0" type="line"/>
      <point x="171" y="0" type="line"/>
      <point x="171" y="52" type="line"/>
      <point x="161" y="52" type="line"/>
      <point x="39" y="38" type="line"/>
    </contour>
    <contour>
      <point x="124" y="188"/>
      <point x="124" y="92"/>
      <point x="121" y="0" type="curve"/>
      <point x="220" y="0" type="line"/>
      <point x="218" y="94"/>
      <point x="218" y="190"/>
      <point x="218" y="298" type="curve" smooth="yes"/>
      <point x="218" y="328" type="line" smooth="yes"/>
      <point x="218" y="425"/>
      <point x="218" y="521"/>
      <point x="220" y="614" type="curve"/>
      <point x="121" y="614" type="line"/>
      <point x="124" y="519"/>
      <point x="124" y="423"/>
      <point x="124" y="328" type="curve" smooth="yes"/>
      <point x="124" y="286" type="line" smooth="yes"/>
    </contour>
    <contour>
      <point x="171" y="0" type="line"/>
      <point x="293" y="0" type="line" smooth="yes"/>
      <point x="475" y="0"/>
      <point x="542" y="85"/>
      <point x="542" y="168" type="curve" smooth="yes"/>
      <point x="542" y="249"/>
      <point x="483" y="312"/>
      <point x="336" y="323" type="curve"/>
      <point x="336" y="315" type="line"/>
      <point x="462" y="331"/>
      <point x="511" y="393"/>
      <point x="511" y="464" type="curve" smooth="yes"/>
      <point x="511" y="552"/>
      <point x="440" y="614"/>
      <point x="310" y="614" type="curve" smooth="yes"/>
      <point x="171" y="614" type="line"/>
      <point x="171" y="570" type="line"/>
      <point x="280" y="570" type="line" smooth="yes"/>
      <point x="371" y="570"/>
      <point x="418" y="540"/>
      <point x="418" y="458" type="curve" smooth="yes"/>
      <point x="418" y="375"/>
      <point x="371" y="339"/>
      <point x="264" y="339" type="curve" smooth="yes"/>
      <point x="171" y="339" type="line"/>
      <point x="171" y="296" type="line"/>
      <point x="266" y="296" type="line" smooth="yes"/>
      <point x="390" y="296"/>
      <point x="444" y="253"/>
      <point x="444" y="168" type="curve" smooth="yes"/>
      <point x="444" y="88"/>
      <point x="387" y="44"/>
      <point x="273" y="44" type="curve" smooth="yes"/>
      <point x="171" y="44" type="line"/>
    </contour>
    <contour>
      <point x="39" y="575" type="line"/>
      <point x="161" y="562" type="line"/>
      <point x="171" y="562" type="line"/>
      <point x="171" y="614" type="line"/>
      <point x="39" y="614" type="line"/>
    </contour>
  </outline>
</glyph>
<glyph name="E" format="2">
  <advance width="554"/>
  <unicode hex="0045"/>
  <anchor x="299" y="634" name="aboveUC"/>
  <anchor x="321" y="-20" name="belowLC"/>
  <anchor x="440" y="0" name="ogonek"/>
  <outline>
    <contour>
      <point x="39" y="0" type="line"/>
      <point x="171" y="0" type="line"/>
      <point x="171" y="52" type="line"/>
      <point x="161" y="52" type="line"/>
      <point x="39" y="38" type="line"/>
    </contour>
    <contour>
      <point x="124" y="188"/>
      <point x="124" y="92"/>
      <point x="121" y="0" type="curve"/>
      <point x="221" y="0" type="line"/>
      <point x="218" y="94"/>
      <point x="218" y="190"/>
      <point x="218" y="295" type="curve" smooth="yes"/>
      <point x="218" y="329" type="line" smooth="yes"/>
      <point x="218" y="425"/>
      <point x="218" y="521"/>
      <point x="221" y="614" type="curve"/>
      <point x="121" y="614" type="line"/>
      <point x="124" y="519"/>
      <point x="124" y="424"/>
      <point x="124" y="329" type="curve" smooth="yes"/>
      <point x="124" y="285" type="line" smooth="yes"/>
    </contour>
    <contour>
      <point x="171" y="0" type="line"/>
      <point x="517" y="0" type="line"/>
      <point x="523" y="162" type="line"/>
      <point x="468" y="162" type="line"/>
      <point x="443" y="19" type="line"/>
      <point x="475" y="46" type="line"/>
      <point x="171" y="46" type="line"/>
    </contour>
    <contour>
      <point x="171" y="292" type="line"/>
      <point x="378" y="292" type="line"/>
      <point x="378" y="336" type="line"/>
      <point x="171" y="336" type="line"/>
    </contour>
    <contour>
      <point x="363" y="207" type="line"/>
      <point x="406" y="207" type="line"/>
      <point x="406" y="422" type="line"/>
      <point x="363" y="422" type="line"/>
      <point x="349" y="325" type="line"/>
      <point x="349" y="308" type="line"/>
    </contour>
    <contour>
      <point x="39" y="575" type="line"/>
      <point x="161" y="562" type="line"/>
      <point x="171" y="562" type="line"/>
      <point x="171" y="614" type="line"/>
      <point x="39" y="614" type="line"/>
    </contour>
    <contour>
      <point x="449" y="451" type="line"/>
      <point x="505" y="451" type="line"/>
      <point x="498" y="614" type="line"/>
      <point x="171" y="614" type="line"/>
      <point x="171" y="567" type="line"/>
      <point x="457" y="567" type="line"/>
      <point x="425" y="595" type="line"/>
    </contour>
  </outline>
</glyph>
<glyph name="I" format="2">
  <advance width="343"/>
  <unicode hex="0049"/>
  <anchor x="171" y="634" name="aboveUC"/>
  <anchor x="171" y="-20" name="belowLC"/>
  <anchor x="208" y="0" name="ogonek"/>
  <outline>
    <contour>
      <point x="39" y="0" type="line"/>
      <point x="303" y="0" type="line"/>
      <point x="303" y="38" type="line"/>
      <point x="181" y="52" type="line"/>
      <point x="161" y="52" type="line"/>
      <point x="39" y="38" type="line"/>
    </contour>
    <contour>
      <point x="124" y="188"/>
      <point x="124" y="92"/>
      <point x="121" y="0" type="curve"/>
      <point x="221" y="0" type="line"/>
      <point x="218" y="94"/>
      <point x="218" y="190"/>
      <point x="218" y="285" type="curve" smooth="yes"/>
      <point x="218" y="329" type="line" smooth="yes"/>
      <point x="218" y="425"/>
      <point x="218" y="521"/>
      <point x="221" y="614" type="curve"/>
      <point x="121" y="614" type="line"/>
      <point x="124" y="519"/>
      <point x="124" y="424"/>
      <point x="124" y="329" type="curve" smooth="yes"/>
      <point x="124" y="285" type="line" smooth="yes"/>
    </contour>
    <contour>
      <point x="39" y="575" type="line"/>
      <point x="161" y="562" type="line"/>
      <point x="181" y="562" type="line"/>
      <point x="303" y="575" type="line"/>
      <point x="303" y="614" type="line"/>
      <point x="39" y="614" type="line"/>
    </contour>
  </outline>
</glyph>
<glyph name="K" format="2">
  <advance width="616"/>
  <unicode hex="004B"/>
  <anchor x="327" y="634" name="aboveUC"/>
  <anchor x="334" y="-20" name="belowLC"/>
  <outline>
    <contour>
      <point x="39" y="0" type="line"/>
      <point x="300" y="0" type="line"/>
      <point x="300" y="38" type="line"/>
      <point x="181" y="52" type="line"/>
      <point x="161" y="52" type="line"/>
      <point x="39" y="38" type="line"/>
    </contour>
    <contour>
      <point x="124" y="188"/>
      <point x="124" y="92"/>
      <point x="121" y="0" type="curve"/>
      <point x="218" y="0" type="line"/>
      <point x="215" y="94"/>
      <point x="215" y="190"/>
      <point x="215" y="264" type="curve" smooth="yes"/>
      <point x="215" y="329" type="line" smooth="yes"/>
      <point x="215" y="425"/>
      <point x="215" y="521"/>
      <point x="218" y="614" type="curve"/>
      <point x="121" y="614" type="line"/>
      <point x="124" y="519"/>
      <point x="124" y="424"/>
      <point x="124" y="329" type="curve" smooth="yes"/>
      <point x="124" y="285" type="line" smooth="yes"/>
    </contour>
    <contour>
      <point x="170" y="159" type="line"/>
      <point x="549" y="614" type="line"/>
      <point x="492" y="614" type="line"/>
      <point x="170" y="219" type="line"/>
    </contour>
    <contour>
      <point x="372" y="0" type="line"/>
      <point x="611" y="0" type="line"/>
      <point x="611" y="38" type="line"/>
      <point x="499" y="52" type="line"/>
      <point x="484" y="52" type="line"/>
      <point x="372" y="38" type="line"/>
    </contour>
    <contour>
      <point x="469" y="0" type="line"/>
      <point x="568" y="0" type="line"/>
      <point x="345" y="403" type="line"/>
      <point x="290" y="337" type="line"/>
    </contour>
    <contour>
      <point x="39" y="575" type="line"/>
      <point x="161" y="562" type="line"/>
      <point x="181" y="562" type="line"/>
      <point x="302" y="575" type="line"/>
      <point x="302" y="614" type="line"/>
      <point x="39" y="614" type="line"/>
    </contour>
    <contour>
      <point x="384" y="575" type="line"/>
      <point x="474" y="557" type="line"/>
      <point x="494" y="562" type="line"/>
      <point x="596" y="575" type="line"/>
      <point x="596" y="614" type="line"/>
      <point x="384" y="614" type="line"/>
    </contour>
  </outline>
</glyph>
<glyph name="N" format="2">
  <advance width="675"/>
  <unicode hex="004E"/>
  <anchor x="333" y="634" name="aboveUC"/>
  <anchor x="346" y="-20" name="belowLC"/>
  <outline>
    <contour>
      <point x="34" y="0" type="line"/>
      <point x="259" y="0" type="line"/>
      <point x="259" y="38" type="line"/>
      <point x="151" y="52" type="line"/>
      <point x="131" y="52" type="line"/>
      <point x="34" y="38" type="line"/>
    </contour>
    <contour>
      <point x="113" y="0" type="line"/>
      <point x="161" y="0" type="line"/>
      <point x="161" y="592" type="line"/>
      <point x="113" y="592" type="line"/>
    </contour>
    <contour>
      <point x="415" y="575" type="line"/>
      <point x="528" y="562" type="line"/>
      <point x="547" y="562" type="line"/>
      <point x="640" y="575" type="line"/>
      <point x="640" y="614" type="line"/>
      <point x="415" y="614" type="line"/>
    </contour>
    <contour>
      <point x="524" y="-5" type="line"/>
      <point x="562" y="-5" type="line"/>
      <point x="562" y="614" type="line"/>
      <point x="513" y="614" type="line"/>
      <point x="513" y="166" type="line"/>
      <point x="188" y="614" type="line"/>
      <point x="39" y="614" type="line"/>
      <point x="39" y="575" type="line"/>
      <point x="103" y="567" type="line"/>
    </contour>
  </outline>
</glyph>
<glyph name="Q" format="2">
  <advance width="649"/>
  <unicode hex="0051"/>
  <anchor x="324" y="634" name="aboveUC"/>
  <anchor x="324" y="-20" name="belowLC"/>
  <anchor x="463" y="606" name="hornLC"/>
  <anchor x="408" y="0" name="ogonek"/>
  <outline>
    <contour>
      <point x="459" y="-197" type="curve" smooth="yes"/>
      <point x="498" y="-197"/>
      <point x="541" y="-188"/>
      <point x="574" y="-168" type="curve"/>
      <point x="563" y="-133" type="line"/>
      <point x="534" y="-141"/>
      <point x="509" y="-144"/>
      <point x="491" y="-144" type="curve" smooth="yes"/>
      <point x="409" y="-144"/>
      <point x="359" y="-86"/>
      <point x="367" y="16" type="curve"/>
      <point x="274" y="28" type="line"/>
      <point x="274" y="-3" type="line" smooth="yes"/>
      <point x="274" y="-108"/>
      <point x="340" y="-197"/>
    </contour>
    <contour>
      <point x="325" y="-14" type="curve" smooth="yes"/>
      <point x="469" y="-14"/>
      <point x="607" y="103"/>
      <point x="607" y="307" type="curve" smooth="yes"/>
      <point x="607" y="517"/>
      <point x="468" y="629"/>
      <point x="325" y="629" type="curve" smooth="yes"/>
      <point x="182" y="629"/>
      <point x="42" y="510"/>
      <point x="42" y="307" type="curve" smooth="yes"/>
      <point x="42" y="96"/>
      <point x="181" y="-14"/>
    </contour>
    <contour>
      <point x="325" y="33" type="curve" smooth="yes"/>
      <point x="201" y="33"/>
      <point x="149" y="166"/>
      <point x="149" y="307" type="curve" smooth="yes"/>
      <point x="149" y="447"/>
      <point x="201" y="581"/>
      <point x="325" y="581" type="curve" smooth="yes"/>
      <point x="448" y="581"/>
      <point x="500" y="447"/>
      <point x="500" y="307" type="curve" smooth="yes"/>
      <point x="500" y="166"/>
      <point x="448" y="33"/>
    </contour>
  </outline>
</glyph>
<glyph name="V" format="2">
  <advance width="619"/>
  <unicode hex="0056"/>
  <anchor x="322" y="634" name="aboveUC"/>
  <anchor x="317" y="-20" name="belowLC"/>
  <outline>
    <contour>
      <point x="293" y="-5" type="line"/>
      <point x="338" y="-5" type="line"/>
      <point x="549" y="614" type="line"/>
      <point x="497" y="614" type="line"/>
      <point x="324" y="103" type="line"/>
      <point x="343" y="103" type="line"/>
      <point x="164" y="614" type="line"/>
      <point x="63" y="614" type="line"/>
    </contour>
    <contour>
      <point x="12" y="575" type="line"/>
      <point x="134" y="562" type="line"/>
      <point x="155" y="562" type="line"/>
      <point x="268" y="572" type="line"/>
      <point x="268" y="614" type="line"/>
      <point x="12" y="614" type="line"/>
    </contour>
    <contour>
      <point x="400" y="572" type="line"/>
      <point x="493" y="562" type="line"/>
      <point x="510" y="562" type="line"/>
      <point x="610" y="575" type="line"/>
      <point x="610" y="614" type="line"/>
      <point x="400" y="614" type="line"/>
    </contour>
  </outline>
</glyph>
<glyph name="bracketleft" format="2">
  <advance width="293"/>
  <unicode hex="005B"/>
  <outline>
    <contour>
      <point x="66" y="667" type="line"/>
      <point x="66" y="-130" type="line"/>
      <point x="254" y="-130" type="line"/>
      <point x="254" y="-67" type="line"/>
      <point x="147" y="-67" type="line"/>
      <point x="147" y="604" type="line"/>
      <point x="258" y="604" type="line"/>
      <point x="258" y="667" type="line"/>
    </contour>
  </outline>
</glyph>
<glyph name="backslash" format="2">
  <advance width="309"/>
  <unicode hex="005C"/>
  <outline>
    <contour>
      <point x="306" y="-147" type="line"/>
      <point x="60" y="653" type="line"/>
      <point x="2" y="653" type="line"/>
      <point x="248" y="-147" type="line"/>
    </contour>
  </outline>
</glyph>
<glyph name="bracketright" format="2">
  <advance width="273"/>
  <unicode hex="005D"/>
  <outline>
    <contour>
      <point x="217" y="647" type="line"/>
      <point x="217" y="-130" type="line"/>
      <point x="25" y="-130" type="line"/>
      <point x="25" y="-67" type="line"/>
      <point x="136" y="-67" type="line"/>
      <point x="136" y="584" type="line"/>
      <point x="25" y="584" type="line"/>
      <point x="25" y="647" type="line"/>
    </contour>
  </outline>
</glyph>
<glyph name="c" format="2">
  <advance width="450"/>
  <unicode hex="0063"/>
  <anchor x="253" y="467" name="aboveLC"/>
  <anchor x="253" y="0" name="baseLC"/>
  <anchor x="253" y="-20" name="belowLC"/>
  <outline>
    <contour>
      <point x="37" y="74"/>
      <point x="120" y="-11"/>
      <point x="246" y="-11" type="curve" smooth="yes"/>
      <point x="333" y="-11"/>
      <point x="392" y="29"/>
      <point x="419" y="104" type="curve"/>
      <point x="395" y="118" type="line"/>
      <point x="368" y="75"/>
      <point x="322" y="50"/>
      <point x="271" y="50" type="curve" smooth="yes"/>
      <point x="185" y="50"/>
      <point x="126" y="113"/>
      <point x="126" y="227" type="curve" smooth="yes"/>
      <point x="126" y="345"/>
      <point x="183" y="407"/>
      <point x="258" y="407" type="curve" smooth="yes"/>
      <point x="285" y="407"/>
      <point x="315" y="401"/>
      <point x="345" y="384" type="curve"/>
      <point x="299" y="419" type="line"/>
      <point x="321" y="341" type="line" smooth="yes"/>
      <point x="326" y="310"/>
      <point x="341" y="292"/>
      <point x="372" y="292" type="curve" smooth="yes"/>
      <point x="397" y="292"/>
      <point x="412" y="303"/>
      <point x="417" y="328" type="curve"/>
      <point x="406" y="397"/>
      <point x="338" y="449"/>
      <point x="253" y="449" type="curve" smooth="yes"/>
      <point x="139" y="449"/>
      <point x="37" y="363"/>
      <point x="37" y="218" type="curve" smooth="yes"/>
    </contour>
  </outline>
</glyph>
<glyph name="j" format="2">
  <advance width="257"/>
  <unicode hex="006A"/>
  <anchor x="140" y="652" name="aboveLC"/>
  <anchor x="51" y="-230" name="belowLC"/>
  <outline>
    <contour>
      <point x="6" y="-228" type="curve" smooth="yes"/>
      <point x="58" y="-228"/>
      <point x="90" y="-211"/>
      <point x="124" y="-177" type="curve" smooth="yes"/>
      <point x="173" y="-127"/>
      <point x="181" y="-57"/>
      <point x="181" y="87" type="curve" smooth="yes"/>
      <point x="181" y="314" type="line"/>
      <point x="184" y="440" type="line"/>
      <point x="170" y="449" type="line"/>
      <point x="25" y="393" type="line"/>
      <point x="25" y="360" type="line"/>
      <point x="96" y="352" type="line"/>
      <point x="98" y="315"/>
      <point x="99" y="287"/>
      <point x="99" y="236" type="curve" smooth="yes"/>
      <point x="99" y="92" type="line" smooth="yes"/>
      <point x="99" y="-40"/>
      <point x="95" y="-115"/>
      <point x="81" y="-154" type="curve" smooth="yes"/>
      <point x="69" y="-189"/>
      <point x="47" y="-195"/>
      <point x="22" y="-195" type="curve"/>
      <point x="23" y="-215" type="line"/>
      <point x="87" y="-196" type="line"/>
      <point x="47" y="-163" type="line" smooth="yes"/>
      <point x="23" y="-143"/>
      <point x="2" y="-133"/>
      <point x="-23" y="-133" type="curve" smooth="yes"/>
      <point x="-50" y="-133"/>
      <point x="-71" y="-147"/>
      <point x="-80" y="-173" type="curve"/>
      <point x="-77" y="-199"/>
      <point x="-50" y="-228"/>
    </contour>
    <contour>
      <point x="140" y="548" type="curve" smooth="yes"/>
      <point x="176" y="548"/>
      <point x="204" y="573"/>
      <point x="204" y="608" type="curve" smooth="yes"/>
      <point x="204" y="644"/>
      <point x="176" y="668"/>
      <point x="140" y="668" type="curve" smooth="yes"/>
      <point x="105" y="668"/>
      <point x="77" y="644"/>
      <point x="77" y="608" type="curve" smooth="yes"/>
      <point x="77" y="573"/>
      <point x="105" y="548"/>
    </contour>
  </outline>
</glyph>
<glyph name="n" format="2">
  <advance width="558"/>
  <unicode hex="006E"/>
  <anchor x="286" y="467" name="aboveLC"/>
  <anchor x="288" y="-20" name="belowLC"/>
  <outline>
    <contour>
      <point x="379" y="0" type="curve"/>
      <point x="471" y="0" type="line"/>
      <point x="469" y="41"/>
      <point x="468" y="134"/>
      <point x="468" y="193" type="curve" smooth="yes"/>
      <point x="468" y="281" type="line" smooth="yes"/>
      <point x="468" y="400"/>
      <point x="427" y="449"/>
      <point x="348" y="449" type="curve" smooth="yes"/>
      <point x="286" y="449"/>
      <point x="220" y="412"/>
      <point x="174" y="355" type="curve"/>
      <point x="166" y="355" type="line"/>
      <point x="176" y="317" type="line"/>
      <point x="227" y="362"/>
      <point x="265" y="381"/>
      <point x="310" y="381" type="curve" smooth="yes"/>
      <point x="361" y="381"/>
      <point x="382" y="355"/>
      <point x="382" y="273" type="curve" smooth="yes"/>
      <point x="382" y="193" type="line" smooth="yes"/>
      <point x="382" y="134"/>
      <point x="381" y="41"/>
    </contour>
    <contour>
      <point x="35" y="0" type="line"/>
      <point x="252" y="0" type="line"/>
      <point x="252" y="34" type="line"/>
      <point x="161" y="52" type="line"/>
      <point x="134" y="52" type="line"/>
      <point x="35" y="34" type="line"/>
    </contour>
    <contour>
      <point x="101" y="0" type="curve"/>
      <point x="191" y="0" type="line"/>
      <point x="189" y="41"/>
      <point x="188" y="136"/>
      <point x="188" y="193" type="curve" smooth="yes"/>
      <point x="188" y="334" type="line"/>
      <point x="178" y="440" type="line"/>
      <point x="163" y="449" type="line"/>
      <point x="29" y="393" type="line"/>
      <point x="29" y="360" type="line"/>
      <point x="101" y="352" type="line"/>
      <point x="103" y="315"/>
      <point x="103" y="288"/>
      <point x="103" y="238" type="curve" smooth="yes"/>
      <point x="103" y="193" type="line" smooth="yes"/>
      <point x="103" y="136"/>
      <point x="103" y="41"/>
    </contour>
    <contour>
      <point x="315" y="0" type="line"/>
      <point x="531" y="0" type="line"/>
      <point x="531" y="34" type="line"/>
      <point x="440" y="52" type="line"/>
      <point x="414" y="52" type="line"/>
      <point x="315" y="34" type="line"/>
    </contour>
  </outline>
</glyph>
<glyph name="p" format="2">
  <advance width="539"/>
  <unicode hex="0070"/>
  <anchor x="280" y="467" name="aboveLC"/>
  <anchor x="149" y="-230" name="belowLC"/>
  <outline>
    <contour>
      <point x="31" y="-218" type="line"/>
      <point x="270" y="-218" type="line"/>
      <point x="270" y="-184" type="line"/>
      <point x="162" y="-166" type="line"/>
      <point x="132" y="-166" type="line"/>
      <point x="31" y="-184" type="line"/>
    </contour>
    <contour>
      <point x="104" y="-87"/>
      <point x="103" y="-151"/>
      <point x="102" y="-218" type="curve"/>
      <point x="189" y="-218" type="line"/>
      <point x="187" y="-151"/>
      <point x="186" y="-85"/>
      <point x="186" y="-22" type="curve" smooth="yes"/>
      <point x="186" y="66" type="line"/>
      <point x="189" y="72" type="line"/>
      <point x="189" y="359" type="line"/>
      <point x="185" y="363" type="line"/>
      <point x="179" y="440" type="line"/>
      <point x="164" y="449" type="line"/>
      <point x="31" y="393" type="line"/>
      <point x="31" y="360" type="line"/>
      <point x="102" y="352" type="line"/>
      <point x="103" y="315"/>
      <point x="104" y="288"/>
      <point x="104" y="238" type="curve" smooth="yes"/>
      <point x="104" y="-23" type="line" smooth="yes"/>
    </contour>
    <contour>
      <point x="208" y="8"/>
      <point x="257" y="-11"/>
      <point x="309" y="-11" type="curve" smooth="yes"/>
      <point x="415" y="-11"/>
      <point x="499" y="78"/>
      <point x="499" y="220" type="curve" smooth="yes"/>
      <point x="499" y="364"/>
      <point x="421" y="449"/>
      <point x="323" y="449" type="curve" smooth="yes"/>
      <point x="266" y="449"/>
      <point x="213" y="421"/>
      <point x="165" y="359" type="curve"/>
      <point x="144" y="359" type="line"/>
      <point x="152" y="312" type="line"/>
      <point x="214" y="372"/>
      <point x="259" y="394"/>
      <point x="296" y="394" type="curve" smooth="yes"/>
      <point x="361" y="394"/>
      <point x="408" y="330"/>
      <point x="408" y="213" type="curve" smooth="yes"/>
      <point x="408" y="96"/>
      <point x="354" y="42"/>
      <point x="287" y="42" type="curve" smooth="yes"/>
      <point x="241" y="42"/>
      <point x="200" y="68"/>
      <point x="153" y="127" type="curve"/>
      <point x="145" y="76" type="line"/>
      <point x="164" y="76" type="line"/>
    </contour>
  </outline>
</glyph>
<glyph name="currency" format="2">
  <advance width="466"/>
  <unicode hex="00A4"/>
  <outline>
    <contour>
      <point x="341" y="392" type="line"/>
      <point x="385" y="418" type="line" smooth="yes"/>
      <point x="425" y="442"/>
      <point x="440" y="457"/>
      <point x="440" y="474" type="curve" smooth="yes"/>
      <point x="440" y="494"/>
      <point x="425" y="508"/>
      <point x="405" y="508" type="curve" smooth="yes"/>
      <point x="388" y="508"/>
      <point x="374" y="494"/>
      <point x="349" y="454" type="curve" smooth="yes"/>
      <point x="323" y="410" type="line"/>
    </contour>
    <contour>
      <point x="134" y="301" type="curve" smooth="yes"/>
      <point x="134" y="362"/>
      <point x="179" y="403"/>
      <point x="232" y="403" type="curve" smooth="yes"/>
      <point x="287" y="403"/>
      <point x="331" y="362"/>
      <point x="331" y="301" type="curve" smooth="yes"/>
      <point x="331" y="241"/>
      <point x="287" y="199"/>
      <point x="232" y="199" type="curve" smooth="yes"/>
      <point x="179" y="199"/>
      <point x="134" y="241"/>
    </contour>
    <contour>
      <point x="79" y="301" type="curve" smooth="yes"/>
      <point x="79" y="211"/>
      <point x="149" y="150"/>
      <point x="232" y="150" type="curve" smooth="yes"/>
      <point x="315" y="150"/>
      <point x="385" y="211"/>
      <point x="385" y="301" type="curve" smooth="yes"/>
      <point x="385" y="392"/>
      <point x="315" y="453"/>
      <point x="232" y="453" type="curve" smooth="yes"/>
      <point x="149" y="453"/>
      <point x="79" y="392"/>
    </contour>
    <contour>
      <point x="142" y="409" type="line"/>
      <point x="115" y="454" type="line" smooth="yes"/>
      <point x="92" y="494"/>
      <point x="78" y="508"/>
      <point x="60" y="508" type="curve" smooth="yes"/>
      <point x="41" y="508"/>
      <point x="25" y="494"/>
      <point x="25" y="474" type="curve" smooth="yes"/>
      <point x="25" y="457"/>
      <point x="40" y="442"/>
      <point x="80" y="418" type="curve" smooth="yes"/>
      <point x="125" y="392" type="line"/>
    </contour>
    <contour>
      <point x="125" y="210" type="line"/>
      <point x="80" y="184" type="line" smooth="yes"/>
      <point x="40" y="161"/>
      <point x="25" y="147"/>
      <point x="25" y="128" type="curve" smooth="yes"/>
      <point x="25" y="110"/>
      <point x="41" y="94"/>
      <point x="60" y="94" type="curve" smooth="yes"/>
      <point x="78" y="94"/>
      <point x="92" y="108"/>
      <point x="115" y="149" type="curve" smooth="yes"/>
      <point x="142" y="194" type="line"/>
    </contour>
    <contour>
      <point x="323" y="194" type="line"/>
      <point x="349" y="149" type="line" smooth="yes"/>
      <point x="374" y="108"/>
      <point x="388" y="94"/>
      <point x="405" y="94" type="curve" smooth="yes"/>
      <point x="425" y="94"/>
      <point x="440" y="110"/>
      <point x="440" y="128" type="curve" smooth="yes"/>
      <point x="440" y="147"/>
      <point x="425" y="161"/>
      <point x="385" y="184" type="curve" smooth="yes"/>
      <point x="341" y="210" type="line"/>
    </contour>
  </outline>
</glyph>
<glyph name="section" format="2">
  <advance width="455"/>
  <unicode hex="00A7"/>
  <outline>
    <contour>
      <point x="243" y="628" type="curve" smooth="yes"/>
      <point x="133" y="628"/>
      <point x="81" y="561"/>
      <point x="81" y="495" type="curve" smooth="yes"/>
      <point x="81" y="431"/>
      <point x="121" y="378"/>
      <point x="230" y="330" type="curve" smooth="yes"/>
      <point x="300" y="299"/>
      <point x="347" y="278"/>
      <point x="347" y="226" type="curve" smooth="yes"/>
      <point x="347" y="192"/>
      <point x="325" y="152"/>
      <point x="292" y="134" type="curve"/>
      <point x="305" y="111" type="line"/>
      <point x="372" y="139"/>
      <point x="414" y="185"/>
      <point x="414" y="249" type="curve" smooth="yes"/>
      <point x="414" y="327"/>
      <point x="364" y="364"/>
      <point x="266" y="406" type="curve" smooth="yes"/>
      <point x="206" y="433"/>
      <point x="155" y="461"/>
      <point x="155" y="517" type="curve" smooth="yes"/>
      <point x="155" y="553"/>
      <point x="185" y="586"/>
      <point x="252" y="586" type="curve" smooth="yes"/>
      <point x="266" y="586"/>
      <point x="279" y="584"/>
      <point x="299" y="577" type="curve"/>
      <point x="262" y="598" type="line"/>
      <point x="288" y="543" type="line" smooth="yes"/>
      <point x="305" y="506"/>
      <point x="323" y="491"/>
      <point x="351" y="491" type="curve" smooth="yes"/>
      <point x="371" y="491"/>
      <point x="387" y="500"/>
      <point x="395" y="525" type="curve"/>
      <point x="395" y="581"/>
      <point x="331" y="628"/>
    </contour>
    <contour>
      <point x="210" y="-92" type="curve" smooth="yes"/>
      <point x="314" y="-92"/>
      <point x="373" y="-24"/>
      <point x="373" y="47" type="curve" smooth="yes"/>
      <point x="373" y="129"/>
      <point x="301" y="172"/>
      <point x="222" y="207" type="curve" smooth="yes"/>
      <point x="162" y="233"/>
      <point x="107" y="260"/>
      <point x="107" y="316" type="curve" smooth="yes"/>
      <point x="107" y="349"/>
      <point x="128" y="383"/>
      <point x="162" y="402" type="curve"/>
      <point x="149" y="425" type="line"/>
      <point x="77" y="394"/>
      <point x="41" y="347"/>
      <point x="41" y="290" type="curve" smooth="yes"/>
      <point x="41" y="207"/>
      <point x="101" y="171"/>
      <point x="185" y="131" type="curve" smooth="yes"/>
      <point x="258" y="97"/>
      <point x="299" y="75"/>
      <point x="299" y="26" type="curve" smooth="yes"/>
      <point x="299" y="-16"/>
      <point x="268" y="-50"/>
      <point x="202" y="-50" type="curve" smooth="yes"/>
      <point x="189" y="-50"/>
      <point x="179" y="-49"/>
      <point x="162" y="-44" type="curve"/>
      <point x="193" y="-63" type="line"/>
      <point x="166" y="-8" type="line" smooth="yes"/>
      <point x="149" y="28"/>
      <point x="131" y="44"/>
      <point x="103" y="44" type="curve" smooth="yes"/>
      <point x="84" y="44"/>
      <point x="68" y="34"/>
      <point x="59" y="10" type="curve"/>
      <point x="60" y="-45"/>
      <point x="123" y="-92"/>
    </contour>
  </outline>
</glyph>
<glyph name="guillemotleft" format="2">
  <advance width="454"/>
  <unicode hex="00AB"/>
  <outline>
    <contour>
      <point x="218" y="44" type="line"/>
      <point x="241" y="69" type="line"/>
      <point x="86" y="253" type="line"/>
      <point x="86" y="211" type="line"/>
      <point x="241" y="394" type="line"/>
      <point x="218" y="420" type="line"/>
      <point x="26" y="257" type="line"/>
      <point x="26" y="207" type="line"/>
    </contour>
    <contour>
      <point x="405" y="44" type="line"/>
      <point x="429" y="69" type="line"/>
      <point x="274" y="253" type="line"/>
      <point x="274" y="211" type="line"/>
      <point x="429" y="394" type="line"/>
      <point x="405" y="420" type="line"/>
      <point x="214" y="257" type="line"/>
      <point x="214" y="207" type="line"/>
    </contour>
  </outline>
</glyph>
<glyph name="acute" format="2">
  <advance width="368"/>
  <unicode hex="00B4"/>
  <anchor x="181" y="467" name="_aboveLC"/>
  <anchor x="181" y="699" name="aboveLC"/>
  <outline>
    <contour>
      <point x="126" y="530" type="curve"/>
      <point x="150" y="511" type="line"/>
      <point x="187" y="543"/>
      <point x="221" y="574"/>
      <point x="261" y="609" type="curve" smooth="yes"/>
      <point x="287" y="632"/>
      <point x="295" y="647"/>
      <point x="295" y="662" type="curve" smooth="yes"/>
      <point x="295" y="687"/>
      <point x="277" y="699"/>
      <point x="258" y="699" type="curve" smooth="yes"/>
      <point x="241" y="699"/>
      <point x="225" y="689"/>
      <point x="206" y="658" type="curve" smooth="yes"/>
      <point x="175" y="612"/>
      <point x="150" y="572"/>
    </contour>
  </outline>
</glyph>
<glyph name="paragraph" format="2">
  <advance width="372"/>
  <unicode hex="00B6"/>
  <outline>
    <contour>
      <point x="357" y="580" type="line"/>
      <point x="357" y="540" type="line"/>
      <point x="330" y="541" type="line"/>
      <point x="330" y="-107" type="line"/>
      <point x="282" y="-107" type="line"/>
      <point x="282" y="540" type="line"/>
      <point x="224" y="540" type="line"/>
      <point x="224" y="-107" type="line"/>
      <point x="177" y="-107" type="line"/>
      <point x="177" y="259" type="line"/>
      <point x="76" y="262"/>
      <point x="-1" y="314"/>
      <point x="-1" y="424" type="curve" smooth="yes"/>
      <point x="-1" y="535"/>
      <point x="76" y="580"/>
      <point x="177" y="580" type="curve" smooth="yes"/>
    </contour>
  </outline>
</glyph>
<glyph name="cedilla" format="2">
  <advance width="368"/>
  <unicode hex="00B8"/>
  <anchor x="158" y="0" name="_baseLC"/>
  <outline>
    <contour>
      <point x="133" y="-79" type="line"/>
      <point x="177" y="-85"/>
      <point x="198" y="-98"/>
      <point x="198" y="-126" type="curve" smooth="yes"/>
      <point x="198" y="-151"/>
      <point x="181" y="-167"/>
      <point x="146" y="-167" type="curve" smooth="yes"/>
      <point x="129" y="-167"/>
      <point x="115" y="-166"/>
      <point x="101" y="-164" type="curve"/>
      <point x="93" y="-194" type="line"/>
      <point x="107" y="-198"/>
      <point x="126" y="-203"/>
      <point x="153" y="-203" type="curve" smooth="yes"/>
      <point x="222" y="-203"/>
      <point x="259" y="-171"/>
      <point x="259" y="-127" type="curve" smooth="yes"/>
      <point x="259" y="-79"/>
      <point x="211" y="-53"/>
      <point x="151" y="-50" type="curve"/>
      <point x="172" y="-69" type="line"/>
      <point x="181" y="2" type="line"/>
      <point x="145" y="2" type="line"/>
    </contour>
  </outline>
</glyph>
<glyph name="onehalf" format="2">
  <advance width="793"/>
  <unicode hex="00BD"/>
  <outline>
    <contour>
      <point x="192" y="-23" type="line"/>
      <point x="618" y="590" type="line"/>
      <point x="588" y="614" type="line"/>
      <point x="162" y="0" type="line"/>
    </contour>
    <contour>
      <point x="64" y="572" type="line"/>
      <point x="64" y="538" type="line"/>
      <point x="134" y="544" type="line"/>
      <point x="134" y="232" type="line"/>
      <point x="204" y="232" type="line"/>
      <point x="204" y="597" type="line"/>
      <point x="195" y="602" type="line"/>
    </contour>
    <contour>
      <point x="198" y="275" type="line"/>
      <point x="138" y="275" type="line"/>
      <point x="52" y="259" type="line"/>
      <point x="52" y="232" type="line"/>
      <point x="282" y="232" type="line"/>
      <point x="282" y="259" type="line"/>
    </contour>
    <contour>
      <point x="478" y="0" type="line"/>
      <point x="726" y="0" type="line"/>
      <point x="726" y="66" type="line"/>
      <point x="518" y="66" type="line"/>
      <point x="508" y="31" type="line"/>
      <point x="592" y="107" type="line" smooth="yes"/>
      <point x="678" y="182"/>
      <point x="713" y="223"/>
      <point x="713" y="276" type="curve" smooth="yes"/>
      <point x="713" y="325"/>
      <point x="681" y="372"/>
      <point x="601" y="372" type="curve" smooth="yes"/>
      <point x="534" y="372"/>
      <point x="477" y="342"/>
      <point x="472" y="278" type="curve"/>
      <point x="480" y="265"/>
      <point x="492" y="257"/>
      <point x="506" y="257" type="curve" smooth="yes"/>
      <point x="524" y="257"/>
      <point x="536" y="267"/>
      <point x="544" y="303" type="curve" smooth="yes"/>
      <point x="556" y="355" type="line"/>
      <point x="518" y="329" type="line"/>
      <point x="540" y="338"/>
      <point x="559" y="341"/>
      <point x="575" y="341" type="curve" smooth="yes"/>
      <point x="618" y="341"/>
      <point x="644" y="316"/>
      <point x="644" y="270" type="curve" smooth="yes"/>
      <point x="644" y="222"/>
      <point x="616" y="180"/>
      <point x="562" y="127" type="curve" smooth="yes"/>
      <point x="478" y="46" type="line"/>
    </contour>
  </outline>
</glyph>
<glyph name="questiondown" format="2">
  <advance width="385"/>
  <unicode hex="00BF"/>
  <outline>
    <contour>
      <point x="246" y="452" type="curve" smooth="yes"/>
      <point x="211" y="452"/>
      <point x="184" y="424"/>
      <point x="184" y="390" type="curve" smooth="yes"/>
      <point x="184" y="356"/>
      <point x="211" y="327"/>
      <point x="246" y="327" type="curve" smooth="yes"/>
      <point x="280" y="327"/>
      <point x="309" y="356"/>
      <point x="309" y="390" type="curve" smooth="yes"/>
      <point x="309" y="424"/>
      <point x="280" y="452"/>
    </contour>
    <contour>
      <point x="60" y="17" type="curve" smooth="yes"/>
      <point x="60" y="-98"/>
      <point x="190" y="-178"/>
      <point x="271" y="-188" type="curve"/>
      <point x="307" y="-179"/>
      <point x="324" y="-164"/>
      <point x="324" y="-136" type="curve" smooth="yes"/>
      <point x="324" y="-112"/>
      <point x="312" y="-93"/>
      <point x="255" y="-83" type="curve" smooth="yes"/>
      <point x="87" y="-54" type="line"/>
      <point x="182" y="-118" type="line"/>
      <point x="146" y="-84"/>
      <point x="113" y="-41"/>
      <point x="113" y="0" type="curve" smooth="yes"/>
      <point x="113" y="30"/>
      <point x="130" y="50"/>
      <point x="163" y="61" type="curve" smooth="yes"/>
      <point x="217" y="77" type="line" smooth="yes"/>
      <point x="272" y="94"/>
      <point x="290" y="111"/>
      <point x="290" y="138" type="curve" smooth="yes"/>
      <point x="290" y="150"/>
      <point x="287" y="168"/>
      <point x="276" y="205" type="curve" smooth="yes"/>
      <point x="264" y="242" type="line"/>
      <point x="228" y="242" type="line"/>
      <point x="228" y="194" type="line" smooth="yes"/>
      <point x="227" y="164"/>
      <point x="222" y="157"/>
      <point x="184" y="145" type="curve" smooth="yes"/>
      <point x="152" y="134" type="line" smooth="yes"/>
      <point x="90" y="114"/>
      <point x="60" y="75"/>
    </contour>
  </outline>
</glyph>
<glyph name="Atilde" format="2">
  <advance width="611"/>
  <unicode hex="00C3"/>
  <anchor x="305" y="803" name="aboveUC"/>
  <anchor x="286" y="-20" name="belowLC"/>
  <anchor x="504" y="0" name="ogonek"/>
  <outline>
    <contour>
      <point x="5" y="0" type="line"/>
      <point x="214" y="0" type="line"/>
      <point x="214" y="38" type="line"/>
      <point x="115" y="52" type="line"/>
      <point x="97" y="52" type="line"/>
      <point x="5" y="38" type="line"/>
    </contour>
    <contour>
      <point x="64" y="0" type="line"/>
      <point x="109" y="0" type="line"/>
      <point x="282" y="510" type="line"/>
      <point x="452" y="0" type="line"/>
      <point x="549" y="0" type="line"/>
      <point x="338" y="618" type="line"/>
      <point x="276" y="618" type="line"/>
    </contour>
    <contour>
      <point x="156" y="197" type="line"/>
      <point x="435" y="197" type="line"/>
      <point x="419" y="241" type="line"/>
      <point x="171" y="241" type="line"/>
    </contour>
    <contour>
      <point x="347" y="0" type="line"/>
      <point x="601" y="0" type="line"/>
      <point x="601" y="38" type="line"/>
      <point x="487" y="52" type="line"/>
      <point x="461" y="52" type="line"/>
      <point x="347" y="38" type="line"/>
    </contour>
    <contour>
      <point x="139" y="674" type="curve"/>
      <point x="168" y="664" type="line"/>
      <point x="183" y="708"/>
      <point x="201" y="736"/>
      <point x="230" y="736" type="curve" smooth="yes"/>
      <point x="257" y="736"/>
      <point x="276" y="711"/>
      <point x="299" y="692" type="curve" smooth="yes"/>
      <point x="320" y="677"/>
      <point x="341" y="663"/>
      <point x="374" y="663" type="curve" smooth="yes"/>
      <point x="430" y="663"/>
      <point x="460" y="710"/>
      <point x="471" y="782" type="curve"/>
      <point x="442" y="792" type="line"/>
      <point x="428" y="747"/>
      <point x="411" y="720"/>
      <point x="379" y="720" type="curve" smooth="yes"/>
      <point x="353" y="720"/>
      <point x="333" y="744"/>
      <point x="313" y="760" type="curve" smooth="yes"/>
      <point x="290" y="779"/>
      <point x="270" y="793"/>
      <point x="237" y="793" type="curve" smooth="yes"/>
      <point x="181" y="793"/>
      <point x="150" y="746"/>
    </contour>
  </outline>
</glyph>
<glyph name="AE" format="2">
  <advance width="843"/>
  <unicode hex="00C6"/>
  <anchor x="551" y="634" name="aboveUC"/>
  <outline>
    <contour>
      <point x="5" y="0" type="line"/>
      <point x="214" y="0" type="line"/>
      <point x="214" y="38" type="line"/>
      <point x="124" y="52" type="line"/>
      <point x="105" y="52" type="line"/>
      <point x="5" y="38" type="line"/>
    </contour>
    <contour>
      <point x="53" y="0" type="line"/>
      <point x="107" y="0" type="line"/>
      <point x="435" y="614" type="line"/>
      <point x="382" y="614" type="line"/>
    </contour>
    <contour>
      <point x="201" y="228" type="line"/>
      <point x="460" y="228" type="line"/>
      <point x="460" y="272" type="line"/>
      <point x="224" y="272" type="line"/>
    </contour>
    <contour>
      <point x="285" y="575" type="line"/>
      <point x="384" y="562" type="line"/>
      <point x="460" y="562" type="line"/>
      <point x="460" y="614" type="line"/>
      <point x="285" y="614" type="line"/>
    </contour>
    <contour>
      <point x="334" y="0" type="line"/>
      <point x="460" y="0" type="line"/>
      <point x="460" y="52" type="line"/>
      <point x="450" y="52" type="line"/>
      <point x="334" y="38" type="line"/>
    </contour>
    <contour>
      <point x="414" y="0" type="curve"/>
      <point x="508" y="0" type="line"/>
      <point x="506" y="94"/>
      <point x="506" y="190"/>
      <point x="506" y="295" type="curve" smooth="yes"/>
      <point x="506" y="329" type="line" smooth="yes"/>
      <point x="506" y="425"/>
      <point x="506" y="521"/>
      <point x="508" y="614" type="curve"/>
      <point x="416" y="614" type="line"/>
      <point x="416" y="237" type="line" smooth="yes"/>
      <point x="416" y="152"/>
      <point x="415" y="75"/>
    </contour>
    <contour>
      <point x="460" y="292" type="line"/>
      <point x="668" y="292" type="line"/>
      <point x="668" y="336" type="line"/>
      <point x="460" y="336" type="line"/>
    </contour>
    <contour>
      <point x="653" y="207" type="line"/>
      <point x="696" y="207" type="line"/>
      <point x="696" y="422" type="line"/>
      <point x="653" y="422" type="line"/>
      <point x="639" y="325" type="line"/>
      <point x="639" y="308" type="line"/>
    </contour>
    <contour>
      <point x="460" y="567" type="line"/>
      <point x="719" y="567" type="line"/>
      <point x="739" y="451" type="line"/>
      <point x="794" y="451" type="line"/>
      <point x="788" y="614" type="line"/>
      <point x="460" y="614" type="line"/>
    </contour>
    <contour>
      <point x="460" y="0" type="line"/>
      <point x="806" y="0" type="line"/>
      <point x="813" y="162" type="line"/>
      <point x="758" y="162" type="line"/>
      <point x="737" y="46" type="line"/>
      <point x="460" y="46" type="line"/>
    </contour>
  </outline>
</glyph>
<glyph name="Ccedilla" format="2">
  <advance width="579"/>
  <unicode hex="00C7"/>
  <anchor x="340" y="634" name="aboveUC"/>
  <anchor x="348" y="0" name="baseLC"/>
  <anchor x="347" y="-20" name="belowLC"/>
  <outline>
    <contour>
      <point x="42" y="115"/>
      <point x="170" y="-14"/>
      <point x="354" y="-14" type="curve" smooth="yes"/>
      <point x="421" y="-14"/>
      <point x="484" y="0"/>
      <point x="540" y="30" type="curve"/>
      <point x="544" y="164" type="line"/>
      <point x="486" y="164" type="line"/>
      <point x="462" y="27" type="line"/>
      <point x="519" y="40" type="line"/>
      <point x="519" y="90" type="line"/>
      <point x="469" y="48"/>
      <point x="412" y="33"/>
      <point x="361" y="33" type="curve" smooth="yes"/>
      <point x="238" y="33"/>
      <point x="149" y="126"/>
      <point x="149" y="307" type="curve" smooth="yes"/>
      <point x="149" y="487"/>
      <point x="247" y="581"/>
      <point x="367" y="581" type="curve" smooth="yes"/>
      <point x="411" y="581"/>
      <point x="460" y="565"/>
      <point x="511" y="518" type="curve"/>
      <point x="511" y="574" type="line"/>
      <point x="453" y="586" type="line"/>
      <point x="478" y="449" type="line"/>
      <point x="536" y="449" type="line"/>
      <point x="532" y="584" type="line"/>
      <point x="471" y="619"/>
      <point x="407" y="629"/>
      <point x="354" y="629" type="curve" smooth="yes"/>
      <point x="176" y="629"/>
      <point x="42" y="496"/>
      <point x="42" y="307" type="curve" smooth="yes"/>
    </contour>
    <contour>
      <point x="311" y="-79" type="line"/>
      <point x="356" y="-85"/>
      <point x="376" y="-98"/>
      <point x="376" y="-126" type="curve" smooth="yes"/>
      <point x="376" y="-151"/>
      <point x="359" y="-167"/>
      <point x="323" y="-167" type="curve" smooth="yes"/>
      <point x="307" y="-167"/>
      <point x="294" y="-166"/>
      <point x="279" y="-164" type="curve"/>
      <point x="272" y="-194" type="line"/>
      <point x="285" y="-198"/>
      <point x="305" y="-203"/>
      <point x="332" y="-203" type="curve" smooth="yes"/>
      <point x="401" y="-203"/>
      <point x="437" y="-171"/>
      <point x="437" y="-127" type="curve" smooth="yes"/>
      <point x="437" y="-79"/>
      <point x="390" y="-53"/>
      <point x="330" y="-50" type="curve"/>
      <point x="350" y="-69" type="line"/>
      <point x="359" y="2" type="line"/>
      <point x="323" y="2" type="line"/>
    </contour>
  </outline>
</glyph>
<glyph name="Egrave" format="2">
  <advance width="554"/>
  <unicode hex="00C8"/>
  <anchor x="275" y="806" name="aboveUC"/>
  <anchor x="321" y="-20" name="belowLC"/>
  <anchor x="440" y="0" name="ogonek"/>
  <outline>
    <contour>
      <point x="39" y="0" type="line"/>
      <point x="171" y="0" type="line"/>
      <point x="171" y="52" type="line"/>
      <point x="161" y="52" type="line"/>
      <point x="39" y="38" type="line"/>
    </contour>
    <contour>
      <point x="124" y="188"/>
      <point x="124" y="92"/>
      <point x="121" y="0" type="curve"/>
      <point x="221" y="0" type="line"/>
      <point x="218" y="94"/>
      <point x="218" y="190"/>
      <point x="218" y="295" type="curve" smooth="yes"/>
      <point x="218" y="329" type="line" smooth="yes"/>
      <point x="218" y="425"/>
      <point x="218" y="521"/>
      <point x="221" y="614" type="curve"/>
      <point x="121" y="614" type="line"/>
      <point x="124" y="519"/>
      <point x="124" y="424"/>
      <point x="124" y="329" type="curve" smooth="yes"/>
      <point x="124" y="285" type="line" smooth="yes"/>
    </contour>
    <contour>
      <point x="171" y="0" type="line"/>
      <point x="517" y="0" type="line"/>
      <point x="523" y="162" type="line"/>
      <point x="468" y="162" type="line"/>
      <point x="443" y="19" type="line"/>
      <point x="475" y="46" type="line"/>
      <point x="171" y="46" type="line"/>
    </contour>
    <contour>
      <point x="171" y="292" type="line"/>
      <point x="378" y="292" type="line"/>
      <point x="378" y="336" type="line"/>
      <point x="171" y="336" type="line"/>
    </contour>
    <contour>
      <point x="363" y="207" type="line"/>
      <point x="406" y="207" type="line"/>
      <point x="406" y="422" type="line"/>
      <point x="363" y="422" type="line"/>
      <point x="349" y="325" type="line"/>
      <point x="349" y="308" type="line"/>
    </contour>
    <contour>
      <point x="39" y="575" type="line"/>
      <point x="161" y="562" type="line"/>
      <point x="171" y="562" type="line"/>
      <point x="171" y="614" type="line"/>
      <point x="39" y="614" type="line"/>
    </contour>
    <contour>
      <point x="449" y="451" type="line"/>
      <point x="505" y="451" type="line"/>
      <point x="498" y="614" type="line"/>
      <point x="171" y="614" type="line"/>
      <point x="171" y="567" type="line"/>
      <point x="457" y="567" type="line"/>
      <point x="425" y="595" type="line"/>
    </contour>
    <contour>
      <point x="339" y="684" type="line"/>
      <point x="310" y="713"/>
      <point x="280" y="743"/>
      <point x="251" y="771" type="curve" smooth="yes"/>
      <point x="224" y="798"/>
      <point x="208" y="806"/>
      <point x="192" y="806" type="curve" smooth="yes"/>
      <point x="172" y="806"/>
      <point x="155" y="793"/>
      <point x="155" y="774" type="curve" smooth="yes"/>
      <point x="155" y="757"/>
      <point x="167" y="740"/>
      <point x="202" y="722" type="curve" smooth="yes"/>
      <point x="241" y="701"/>
      <point x="281" y="680"/>
      <point x="321" y="660" type="curve"/>
    </contour>
  </outline>
</glyph>
<glyph name="Iacute" format="2">
  <advance width="343"/>
  <unicode hex="00CD"/>
  <anchor x="189" y="806" name="aboveUC"/>
  <anchor x="171" y="-20" name="belowLC"/>
  <anchor x="208" y="0" name="ogonek"/>
  <outline>
    <contour>
      <point x="39" y="0" type="line"/>
      <point x="303" y="0" type="line"/>
      <point x="303" y="38" type="line"/>
      <point x="181" y="52" type="line"/>
      <point x="161" y="52" type="line"/>
      <point x="39" y="38" type="line"/>
    </contour>
    <contour>
      <point x="124" y="188"/>
      <point x="124" y="92"/>
      <point x="121" y="0" type="curve"/>
      <point x="221" y="0" type="line"/>
      <point x="218" y="94"/>
      <point x="218" y="190"/>
      <point x="218" y="285" type="curve" smooth="yes"/>
      <point x="218" y="329" type="line" smooth="yes"/>
      <point x="218" y="425"/>
      <point x="218" y="521"/>
      <point x="221" y="614" type="curve"/>
      <point x="121" y="614" type="line"/>
      <point x="124" y="519"/>
      <point x="124" y="424"/>
      <point x="124" y="329" type="curve" smooth="yes"/>
      <point x="124" y="285" type="line" smooth="yes"/>
    </contour>
    <contour>
      <point x="39" y="575" type="line"/>
      <point x="161" y="562" type="line"/>
      <point x="181" y="562" type="line"/>
      <point x="303" y="575" type="line"/>
      <point x="303" y="614" type="line"/>
      <point x="39" y="614" type="line"/>
    </contour>
    <contour>
      <point x="126" y="684" type="curve"/>
      <point x="143" y="660" type="line"/>
      <point x="183" y="679"/>
      <point x="222" y="701"/>
      <point x="262" y="722" type="curve" smooth="yes"/>
      <point x="298" y="741"/>
      <point x="309" y="757"/>
      <point x="309" y="774" type="curve" smooth="yes"/>
      <point x="309" y="793"/>
      <point x="292" y="806"/>
      <point x="272" y="806" type="curve" smooth="yes"/>
      <point x="255" y="806"/>
      <point x="240" y="798"/>
      <point x="213" y="771" type="curve" smooth="yes"/>
      <point x="184" y="744"/>
      <point x="155" y="714"/>
    </contour>
  </outline>
</glyph>
<glyph name="Icircumflex" format="2">
  <advance width="343"/>
  <unicode hex="00CE"/>
  <anchor x="171" y="798" name="aboveUC"/>
  <anchor x="171" y="-20" name="belowLC"/>
  <anchor x="208" y="0" name="ogonek"/>
  <outline>
    <contour>
      <point x="39" y="0" type="line"/>
      <point x="303" y="0" type="line"/>
      <point x="303" y="38" type="line"/>
      <point x="181" y="52" type="line"/>
      <point x="161" y="52" type="line"/>
      <point x="39" y="38" type="line"/>
    </contour>
    <contour>
      <point x="124" y="188"/>
      <point x="124" y="92"/>
      <point x="121" y="0" type="curve"/>
      <point x="221" y="0" type="line"/>
      <point x="218" y="94"/>
      <point x="218" y="190"/>
      <point x="218" y="285" type="curve" smooth="yes"/>
      <point x="218" y="329" type="line" smooth="yes"/>
      <point x="218" y="425"/>
      <point x="218" y="521"/>
      <point x="221" y="614" type="curve"/>
      <point x="121" y="614" type="line"/>
      <point x="124" y="519"/>
      <point x="124" y="424"/>
      <point x="124" y="329" type="curve" smooth="yes"/>
      <point x="124" y="285" type="line" smooth="yes"/>
    </contour>
    <contour>
      <point x="39" y="575" type="line"/>
      <point x="161" y="562" type="line"/>
      <point x="181" y="562" type="line"/>
      <point x="303" y="575" type="line"/>
      <point x="303" y="614" type="line"/>
      <point x="39" y="614" type="line"/>
    </contour>
    <contour>
      <point x="188" y="789" type="line"/>
      <point x="154" y="789" type="line"/>
      <point x="31" y="679" type="line"/>
      <point x="50" y="655" type="line"/>
      <point x="210" y="747" type="line"/>
      <point x="131" y="747" type="line"/>
      <point x="292" y="655" type="line"/>
      <point x="310" y="679" type="line"/>
    </contour>
  </outline>
</glyph>
<glyph name="Idieresis" format="2">
  <advance width="343"/>
  <unicode hex="00CF"/>
  <anchor x="171" y="634" name="aboveUC"/>
  <anchor x="171" y="-20" name="belowLC"/>
  <anchor x="208" y="0" name="ogonek"/>
  <outline>
    <contour>
      <point x="85" y="681" type="curve" smooth="yes"/>
      <point x="115" y="681"/>
      <point x="138" y="702"/>
      <point x="138" y="733" type="curve" smooth="yes"/>
      <point x="138" y="763"/>
      <point x="115" y="785"/>
      <point x="85" y="785" type="curve" smooth="yes"/>
      <point x="57" y="785"/>
      <point x="32" y="763"/>
      <point x="32" y="733" type="curve" smooth="yes"/>
      <point x="32" y="702"/>
      <point x="57" y="681"/>
    </contour>
    <contour>
      <point x="257" y="681" type="curve" smooth="yes"/>
      <point x="286" y="681"/>
      <point x="310" y="702"/>
      <point x="310" y="733" type="curve" smooth="yes"/>
      <point x="310" y="763"/>
      <point x="286" y="785"/>
      <point x="257" y="785" type="curve" smooth="yes"/>
      <point x="227" y="785"/>
      <point x="204" y="763"/>
      <point x="204" y="733" type="curve" smooth="yes"/>
      <point x="204" y="702"/>
      <point x="227" y="681"/>
    </contour>
    <contour>
      <point x="39" y="0" type="line"/>
      <point x="303" y="0" type="line"/>
      <point x="303" y="38" type="line"/>
      <point x="181" y="52" type="line"/>
      <point x="161" y="52" type="line"/>
      <point x="39" y="38" type="line"/>
    </contour>
    <contour>
      <point x="124" y="188"/>
      <point x="124" y="92"/>
      <point x="121" y="0" type="curve"/>
      <point x="221" y="0" type="line"/>
      <point x="218" y="94"/>
      <point x="218" y="190"/>
      <point x="218" y="285" type="curve" smooth="yes"/>
      <point x="218" y="329" type="line" smooth="yes"/>
      <point x="218" y="425"/>
      <point x="218" y="521"/>
      <point x="221" y="614" type="curve"/>
      <point x="121" y="614" type="line"/>
      <point x="124" y="519"/>
      <point x="124" y="424"/>
      <point x="124" y="329" type="curve" smooth="yes"/>
      <point x="124" y="285" type="line" smooth="yes"/>
    </contour>
    <contour>
      <point x="39" y="575" type="line"/>
      <point x="161" y="562" type="line"/>
      <point x="181" y="562" type="line"/>
      <point x="303" y="575" type="line"/>
      <point x="303" y="614" type="line"/>
      <point x="39" y="614" type="line"/>
    </contour>
  </outline>
</glyph>
<glyph name="Oacute" format="2">
  <advance width="649"/>
  <unicode hex="00D3"/>
  <anchor x="344" y="807" name="aboveUC"/>
  <anchor x="324" y="-20" name="belowLC"/>
  <anchor x="463" y="606" name="hornLC"/>
  <anchor x="408" y="0" name="ogonek"/>
  <outline>
    <contour>
      <point x="325" y="-14" type="curve" smooth="yes"/>
      <point x="469" y="-14"/>
      <point x="607" y="103"/>
      <point x="607" y="307" type="curve" smooth="yes"/>
      <point x="607" y="517"/>
      <point x="468" y="629"/>
      <point x="325" y="629" type="curve" smooth="yes"/>
      <point x="182" y="629"/>
      <point x="42" y="510"/>
      <point x="42" y="307" type="curve" smooth="yes"/>
      <point x="42" y="96"/>
      <point x="181" y="-14"/>
    </contour>
    <contour>
      <point x="325" y="33" type="curve" smooth="yes"/>
      <point x="201" y="33"/>
      <point x="149" y="166"/>
      <point x="149" y="307" type="curve" smooth="yes"/>
      <point x="149" y="447"/>
      <point x="201" y="581"/>
      <point x="325" y="581" type="curve" smooth="yes"/>
      <point x="448" y="581"/>
      <point x="500" y="447"/>
      <point x="500" y="307" type="curve" smooth="yes"/>
      <point x="500" y="166"/>
      <point x="448" y="33"/>
    </contour>
    <contour>
      <point x="279" y="685" type="curve"/>
      <point x="297" y="660" type="line"/>
      <point x="336" y="679"/>
      <point x="376" y="701"/>
      <point x="415" y="722" type="curve" smooth="yes"/>
      <point x="451" y="741"/>
      <point x="462" y="758"/>
      <point x="462" y="774" type="curve" smooth="yes"/>
      <point x="462" y="793"/>
      <point x="446" y="807"/>
      <point x="426" y="807" type="curve" smooth="yes"/>
      <point x="410" y="807"/>
      <point x="393" y="798"/>
      <point x="368" y="772" type="curve" smooth="yes"/>
      <point x="338" y="744"/>
      <point x="309" y="714"/>
    </contour>
  </outline>
</glyph>
<glyph name="ecircumflex" format="2">
  <advance width="470"/>
  <unicode hex="00EA"/>
  <anchor x="249" y="678" name="aboveLC"/>
  <anchor x="262" y="-20" name="belowLC"/>
  <anchor x="318" y="0" name="ogonek"/>
  <outline>
    <contour>
      <point x="39" y="73"/>
      <point x="122" y="-11"/>
      <point x="247" y="-11" type="curve" smooth="yes"/>
      <point x="332" y="-11"/>
      <point x="391" y="28"/>
      <point x="425" y="94" type="curve"/>
      <point x="402" y="113" type="line"/>
      <point x="370" y="76"/>
      <point x="333" y="50"/>
      <point x="276" y="50" type="curve" smooth="yes"/>
      <point x="188" y="50"/>
      <point x="129" y="111"/>
      <point x="129" y="227" type="curve" smooth="yes"/>
      <point x="129" y="358"/>
      <point x="193" y="407"/>
      <point x="248" y="407" type="curve" smooth="yes"/>
      <point x="302" y="407"/>
      <point x="344" y="362"/>
      <point x="344" y="309" type="curve" smooth="yes"/>
      <point x="344" y="280"/>
      <point x="333" y="260"/>
      <point x="289" y="260" type="curve" smooth="yes"/>
      <point x="78" y="260" type="line"/>
      <point x="78" y="219" type="line"/>
      <point x="421" y="219" type="line"/>
      <point x="425" y="232"/>
      <point x="426" y="250"/>
      <point x="426" y="271" type="curve" smooth="yes"/>
      <point x="426" y="382"/>
      <point x="352" y="449"/>
      <point x="253" y="449" type="curve" smooth="yes"/>
      <point x="138" y="449"/>
      <point x="39" y="357"/>
      <point x="39" y="214" type="curve" smooth="yes"/>
    </contour>
    <contour>
      <point x="366" y="502" type="line"/>
      <point x="389" y="523" type="line"/>
      <point x="266" y="685" type="line"/>
      <point x="232" y="685" type="line"/>
      <point x="110" y="523" type="line"/>
      <point x="133" y="502" type="line"/>
      <point x="288" y="641" type="line"/>
      <point x="210" y="641" type="line"/>
    </contour>
  </outline>
</glyph>
<glyph name="oacute" format="2">
  <advance width="506"/>
  <unicode hex="00F3"/>
  <anchor x="273" y="699" name="aboveLC"/>
  <anchor x="253" y="-20" name="belowLC"/>
  <anchor x="363" y="442" name="hornLC"/>
  <anchor x="323" y="0" name="ogonek"/>
  <outline>
    <contour>
      <point x="253" y="-11" type="curve" smooth="yes"/>
      <point x="363" y="-11"/>
      <point x="466" y="66"/>
      <point x="466" y="217" type="curve" smooth="yes"/>
      <point x="466" y="368"/>
      <point x="361" y="449"/>
      <point x="253" y="449" type="curve" smooth="yes"/>
      <point x="143" y="449"/>
      <point x="39" y="368"/>
      <point x="39" y="217" type="curve" smooth="yes"/>
      <point x="39" y="66"/>
      <point x="141" y="-11"/>
    </contour>
    <contour>
      <point x="253" y="30" type="curve" smooth="yes"/>
      <point x="175" y="30"/>
      <point x="134" y="92"/>
      <point x="134" y="217" type="curve" smooth="yes"/>
      <point x="134" y="341"/>
      <point x="175" y="407"/>
      <point x="253" y="407" type="curve" smooth="yes"/>
      <point x="328" y="407"/>
      <point x="372" y="341"/>
      <point x="372" y="217" type="curve" smooth="yes"/>
      <point x="372" y="92"/>
      <point x="328" y="30"/>
    </contour>
    <contour>
      <point x="217" y="530" type="curve"/>
      <point x="241" y="511" type="line"/>
      <point x="278" y="543"/>
      <point x="312" y="574"/>
      <point x="352" y="609" type="curve" smooth="yes"/>
      <point x="379" y="632"/>
      <point x="386" y="647"/>
      <point x="386" y="662" type="curve" smooth="yes"/>
      <point x="386" y="687"/>
      <point x="368" y="699"/>
      <point x="350" y="699" type="curve" smooth="yes"/>
      <point x="332" y="699"/>
      <point x="316" y="689"/>
      <point x="297" y="658" type="curve" smooth="yes"/>
      <point x="267" y="612"/>
      <point x="241" y="572"/>
    </contour>
  </outline>
</glyph>
<glyph name="uacute" format="2">
  <advance width="539"/>
  <unicode hex="00FA"/>
  <anchor x="273" y="699" name="aboveLC"/>
  <anchor x="276" y="-20" name="belowLC"/>
  <anchor x="423" y="432" name="hornLC"/>
  <anchor x="455" y="0" name="ogonek"/>
  <outline>
    <contour>
      <point x="82" y="32"/>
      <point x="129" y="-11"/>
      <point x="204" y="-11" type="curve" smooth="yes"/>
      <point x="264" y="-11"/>
      <point x="325" y="18"/>
      <point x="375" y="87" type="curve"/>
      <point x="390" y="87" type="line"/>
      <point x="375" y="126" type="line"/>
      <point x="332" y="80"/>
      <point x="284" y="56"/>
      <point x="239" y="56" type="curve" smooth="yes"/>
      <point x="192" y="56"/>
      <point x="168" y="82"/>
      <point x="168" y="161" type="curve" smooth="yes"/>
      <point x="168" y="305" type="line"/>
      <point x="172" y="434" type="line"/>
      <point x="163" y="443" type="line"/>
      <point x="22" y="429" type="line"/>
      <point x="22" y="395" type="line"/>
      <point x="107" y="377" type="line"/>
      <point x="86" y="396" type="line"/>
      <point x="83" y="153" type="line" smooth="yes"/>
    </contour>
    <contour>
      <point x="374" y="-7" type="line"/>
      <point x="508" y="0" type="line"/>
      <point x="508" y="34" type="line"/>
      <point x="448" y="46" type="line"/>
      <point x="448" y="305" type="line"/>
      <point x="450" y="434" type="line"/>
      <point x="440" y="443" type="line"/>
      <point x="301" y="428" type="line"/>
      <point x="301" y="395" type="line"/>
      <point x="365" y="382" type="line"/>
      <point x="362" y="100" type="line"/>
    </contour>
    <contour>
      <point x="218" y="530" type="curve"/>
      <point x="242" y="511" type="line"/>
      <point x="279" y="543"/>
      <point x="313" y="574"/>
      <point x="353" y="609" type="curve" smooth="yes"/>
      <point x="379" y="632"/>
      <point x="387" y="647"/>
      <point x="387" y="662" type="curve" smooth="yes"/>
      <point x="387" y="687"/>
      <point x="369" y="699"/>
      <point x="350" y="699" type="curve" smooth="yes"/>
      <point x="333" y="699"/>
      <point x="317" y="689"/>
      <point x="298" y="658" type="curve" smooth="yes"/>
      <point x="267" y="612"/>
      <point x="242" y="572"/>
    </contour>
  </outline>
</glyph>
<glyph name="scaron" format="2">
  <advance width="401"/>
  <unicode hex="0161"/>
  <anchor x="209" y="673" name="aboveLC"/>
  <anchor x="198" y="0" name="baseLC"/>
  <anchor x="201" y="-20" name="belowLC"/>
  <outline>
    <contour>
      <point x="184" y="-11" type="curve" smooth="yes"/>
      <point x="304" y="-11"/>
      <point x="367" y="49"/>
      <point x="367" y="122" type="curve" smooth="yes"/>
      <point x="367" y="180"/>
      <point x="332" y="224"/>
      <point x="241" y="257" type="curve" smooth="yes"/>
      <point x="210" y="267" type="line" smooth="yes"/>
      <point x="148" y="290"/>
      <point x="126" y="306"/>
      <point x="126" y="345" type="curve" smooth="yes"/>
      <point x="126" y="382"/>
      <point x="155" y="406"/>
      <point x="209" y="406" type="curve" smooth="yes"/>
      <point x="244" y="406"/>
      <point x="274" y="395"/>
      <point x="303" y="372" type="curve"/>
      <point x="303" y="398" type="line"/>
      <point x="267" y="414" type="line"/>
      <point x="287" y="318" type="line"/>
      <point x="337" y="318" type="line"/>
      <point x="342" y="412" type="line"/>
      <point x="300" y="436"/>
      <point x="261" y="449"/>
      <point x="211" y="449" type="curve" smooth="yes"/>
      <point x="105" y="449"/>
      <point x="47" y="387"/>
      <point x="47" y="318" type="curve" smooth="yes"/>
      <point x="47" y="254"/>
      <point x="91" y="217"/>
      <point x="159" y="193" type="curve" smooth="yes"/>
      <point x="202" y="177" type="line" smooth="yes"/>
      <point x="261" y="156"/>
      <point x="287" y="137"/>
      <point x="287" y="98" type="curve" smooth="yes"/>
      <point x="287" y="57"/>
      <point x="253" y="30"/>
      <point x="185" y="30" type="curve" smooth="yes"/>
      <point x="140" y="30"/>
      <point x="105" y="43"/>
      <point x="72" y="68" type="curve"/>
      <point x="72" y="35" type="line"/>
      <point x="118" y="15" type="line"/>
      <point x="94" y="126" type="line"/>
      <point x="42" y="126" type="line"/>
      <point x="45" y="23" type="line"/>
      <point x="90" y="0"/>
      <point x="131" y="-11"/>
    </contour>
    <contour>
      <point x="103" y="682" type="line"/>
      <point x="79" y="663" type="line"/>
      <point x="174" y="524" type="line"/>
      <point x="244" y="524" type="line"/>
      <point x="339" y="663" type="line"/>
      <point x="315" y="682" type="line"/>
      <point x="170" y="551" type="line"/>
      <point x="248" y="551" type="line"/>
    </contour>
  </outline>
</glyph>
<glyph name="Ydieresis" format="2">
  <advance width="581"/>
  <unicode hex="0178"/>
  <anchor x="321" y="794" name="aboveUC"/>
  <anchor x="289" y="-20" name="belowLC"/>
  <outline>
    <contour>
      <point x="150" y="0" type="line"/>
      <point x="433" y="0" type="line"/>
      <point x="433" y="38" type="line"/>
      <point x="302" y="52" type="line"/>
      <point x="280" y="52" type="line"/>
      <point x="150" y="38" type="line"/>
    </contour>
    <contour>
      <point x="241" y="0" type="curve"/>
      <point x="342" y="0" type="line"/>
      <point x="339" y="81"/>
      <point x="339" y="167"/>
      <point x="339" y="276" type="curve"/>
      <point x="244" y="276" type="line"/>
      <point x="244" y="166"/>
      <point x="244" y="80"/>
    </contour>
    <contour>
      <point x="261" y="205" type="line"/>
      <point x="320" y="205" type="line"/>
      <point x="517" y="614" type="line"/>
      <point x="469" y="614" type="line"/>
      <point x="300" y="258" type="line"/>
      <point x="332" y="258" type="line"/>
      <point x="168" y="614" type="line"/>
      <point x="59" y="614" type="line"/>
    </contour>
    <contour>
      <point x="12" y="575" type="line"/>
      <point x="135" y="562" type="line"/>
      <point x="157" y="562" type="line"/>
      <point x="276" y="575" type="line"/>
      <point x="276" y="614" type="line"/>
      <point x="12" y="614" type="line"/>
    </contour>
    <contour>
      <point x="364" y="575" type="line"/>
      <point x="464" y="562" type="line"/>
      <point x="482" y="562" type="line"/>
      <point x="573" y="575" type="line"/>
      <point x="573" y="614" type="line"/>
      <point x="364" y="614" type="line"/>
    </contour>
    <contour>
      <point x="217" y="681" type="curve" smooth="yes"/>
      <point x="247" y="681"/>
      <point x="271" y="702"/>
      <point x="271" y="733" type="curve" smooth="yes"/>
      <point x="271" y="763"/>
      <point x="247" y="785"/>
      <point x="217" y="785" type="curve" smooth="yes"/>
      <point x="187" y="785"/>
      <point x="162" y="763"/>
      <point x="162" y="733" type="curve" smooth="yes"/>
      <point x="162" y="702"/>
      <point x="187" y="681"/>
    </contour>
    <contour>
      <point x="425" y="681" type="curve" smooth="yes"/>
      <point x="454" y="681"/>
      <point x="479" y="702"/>
      <point x="479" y="733" type="curve" smooth="yes"/>
      <point x="479" y="763"/>
      <point x="454" y="785"/>
      <point x="425" y="785" type="curve" smooth="yes"/>
      <point x="394" y="785"/>
      <point x="370" y="763"/>
      <point x="370" y="733" type="curve" smooth="yes"/>
      <point x="370" y="702"/>
      <point x="394" y="681"/>
    </contour>
  </outline>
</glyph>
<glyph name="zcaron" format="2">
  <advance width="419"/>
  <unicode hex="017E"/>
  <anchor x="221" y="673" name="aboveLC"/>
  <anchor x="222" y="-20" name="belowLC"/>
  <outline>
    <contour>
      <point x="25" y="0" type="line"/>
      <point x="389" y="0" type="line"/>
      <point x="398" y="150" type="line"/>
      <point x="347" y="150" type="line"/>
      <point x="313" y="12" type="line"/>
      <point x="347" y="39" type="line"/>
      <point x="99" y="39" type="line"/>
      <point x="111" y="16" type="line"/>
      <point x="385" y="404" type="line"/>
      <point x="385" y="437" type="line"/>
      <point x="38" y="437" type="line"/>
      <point x="31" y="299" type="line"/>
      <point x="81" y="296" type="line"/>
      <point x="113" y="425" type="line"/>
      <point x="79" y="398" type="line"/>
      <point x="312" y="398" type="line"/>
      <point x="301" y="420" type="line"/>
      <point x="25" y="33" type="line"/>
    </contour>
    <contour>
      <point x="115" y="682" type="line"/>
      <point x="91" y="663" type="line"/>
      <point x="186" y="524" type="line"/>
      <point x="256" y="524" type="line"/>
      <point x="352" y="663" type="line"/>
      <point x="328" y="682" type="line"/>
      <point x="183" y="551" type="line"/>
      <point x="260" y="551" type="line"/>
    </contour>
  </outline>
</glyph>
<glyph name="caron" format="2">
  <advance width="368"/>
  <unicode hex="02C7"/>
  <anchor x="184" y="467" name="_aboveLC"/>
  <anchor x="184" y="673" name="aboveLC"/>
  <outline>
    <contour>
      <point x="78" y="682" type="line"/>
      <point x="53" y="663" type="line"/>
      <point x="149" y="524" type="line"/>
      <point x="218" y="524" type="line"/>
      <point x="314" y="663" type="line"/>
      <point x="289" y="682" type="line"/>
      <point x="145" y="551" type="line"/>
      <point x="222" y="551" type="line"/>
    </contour>
  </outline>
</glyph>
<glyph name="uni02CD" format="2">
  <advance width="452"/>
  <unicode hex="02CD"/>
  <outline>
    <contour>
      <point x="72" y="0" type="line"/>
      <point x="380" y="0" type="line"/>
      <point x="380" y="80" type="line"/>
      <point x="72" y="80" type="line"/>
    </contour>
  </outline>
</glyph>
<glyph name="quoteleft" format="2">
  <advance width="274"/>
  <unicode hex="2018"/>
  <outline>
    <contour>
      <point x="171" y="588" type="line"/>
      <point x="97" y="560"/>
      <point x="53" y="505"/>
      <point x="53" y="439" type="curve" smooth="yes"/>
      <point x="53" y="378"/>
      <point x="84" y="344"/>
      <point x="127" y="344" type="curve" smooth="yes"/>
      <point x="167" y="344"/>
      <point x="191" y="372"/>
      <point x="191" y="409" type="curve" smooth="yes"/>
      <point x="191" y="444"/>
      <point x="165" y="464"/>
      <point x="137" y="464" type="curve" smooth="yes"/>
      <point x="114" y="464"/>
      <point x="87" y="446"/>
      <point x="87" y="423" type="curve"/>
      <point x="92" y="423"/>
      <point x="114" y="423"/>
      <point x="121" y="423" type="curve"/>
      <point x="117" y="432"/>
      <point x="117" y="445"/>
      <point x="117" y="471" type="curve" smooth="yes"/>
      <point x="117" y="508"/>
      <point x="145" y="536"/>
      <point x="179" y="553" type="curve"/>
    </contour>
  </outline>
</glyph>
<glyph name="quoteright" format="2">
  <advance width="273"/>
  <unicode hex="2019"/>
  <outline>
    <contour>
      <point x="102" y="348" type="line"/>
      <point x="176" y="376"/>
      <point x="220" y="431"/>
      <point x="220" y="497" type="curve" smooth="yes"/>
      <point x="220" y="558"/>
      <point x="189" y="592"/>
      <point x="146" y="592" type="curve" smooth="yes"/>
      <point x="106" y="592"/>
      <point x="82" y="564"/>
      <point x="82" y="527" type="curve" smooth="yes"/>
      <point x="82" y="492"/>
      <point x="108" y="472"/>
      <point x="136" y="472" type="curve" smooth="yes"/>
      <point x="159" y="472"/>
      <point x="186" y="490"/>
      <point x="186" y="513" type="curve"/>
      <point x="181" y="513"/>
      <point x="159" y="513"/>
      <point x="152" y="513" type="curve"/>
      <point x="156" y="504"/>
      <point x="156" y="491"/>
      <point x="156" y="465" type="curve" smooth="yes"/>
      <point x="156" y="428"/>
      <point x="128" y="400"/>
      <point x="94" y="383" type="curve"/>
    </contour>
  </outline>
</glyph>
<glyph name="quotesinglbase" format="2">
  <advance width="223"/>
  <unicode hex="201A"/>
  <outline>
    <contour>
      <point x="51" y="-132" type="line"/>
      <point x="125" y="-104"/>
      <point x="169" y="-49"/>
      <point x="169" y="17" type="curve" smooth="yes"/>
      <point x="169" y="78"/>
      <point x="138" y="112"/>
      <point x="95" y="112" type="curve" smooth="yes"/>
      <point x="55" y="112"/>
      <point x="31" y="84"/>
      <point x="31" y="47" type="curve" smooth="yes"/>
      <point x="31" y="12"/>
      <point x="57" y="-8"/>
      <point x="85" y="-8" type="curve" smooth="yes"/>
      <point x="108" y="-8"/>
      <point x="135" y="10"/>
      <point x="135" y="33" type="curve"/>
      <point x="130" y="33"/>
      <point x="108" y="33"/>
      <point x="101" y="33" type="curve"/>
      <point x="105" y="24"/>
      <point x="105" y="11"/>
      <point x="105" y="-15" type="curve" smooth="yes"/>
      <point x="105" y="-52"/>
      <point x="77" y="-80"/>
      <point x="43" y="-97" type="curve"/>
    </contour>
  </outline>
</glyph>
<glyph name="quotedblbase" format="2">
  <advance width="411"/>
  <unicode hex="201E"/>
  <outline>
    <contour>
      <point x="51" y="-132" type="line"/>
      <point x="125" y="-104"/>
      <point x="169" y="-49"/>
      <point x="169" y="17" type="curve" smooth="yes"/>
      <point x="169" y="78"/>
      <point x="138" y="112"/>
      <point x="95" y="112" type="curve" smooth="yes"/>
      <point x="55" y="112"/>
      <point x="31" y="84"/>
      <point x="31" y="47" type="curve" smooth="yes"/>
      <point x="31" y="12"/>
      <point x="57" y="-8"/>
      <point x="85" y="-8" type="curve" smooth="yes"/>
      <point x="108" y="-8"/>
      <point x="135" y="10"/>
      <point x="135" y="33" type="curve"/>
      <point x="130" y="33"/>
      <point x="108" y="33"/>
      <point x="101" y="33" type="curve"/>
      <point x="105" y="24"/>
      <point x="105" y="11"/>
      <point x="105" y="-15" type="curve" smooth="yes"/>
      <point x="105" y="-52"/>
      <point x="77" y="-80"/>
      <point x="43" y="-97" type="curve"/>
    </contour>
    <contour>
      <point x="239" y="-132" type="line"/>
      <point x="313" y="-104"/>
      <point x="357" y="-49"/>
      <point x="357" y="17" type="curve" smooth="yes"/>
      <point x="357" y="78"/>
      <point x="326" y="112"/>
      <point x="283" y="112" type="curve" smooth="yes"/>
      <point x="243" y="112"/>
      <point x="219" y="84"/>
      <point x="219" y="47" type="curve" smooth="yes"/>
      <point x="219" y="12"/>
      <point x="245" y="-8"/>
      <point x="273" y="-8" type="curve" smooth="yes"/>
      <point x="296" y="-8"/>
      <point x="323" y="10"/>
      <point x="323" y="33" type="curve"/>
      <point x="318" y="33"/>
      <point x="296" y="33"/>
      <point x="289" y="33" type="curve"/>
      <point x="293" y="24"/>
      <point x="293" y="11"/>
      <point x="293" y="-15" type="curve" smooth="yes"/>
      <point x="293" y="-52"/>
      <point x="265" y="-80"/>
      <point x="231" y="-97" type="curve"/>
    </contour>
  </outline>
</glyph>
<glyph name="ellipsis" format="2">
  <advance width="828"/>
  <unicode hex="2026"/>
  <outline>
    <contour>
      <point x="138" y="-11" type="curve" smooth="yes"/>
      <point x="175" y="-11"/>
      <point x="205" y="18"/>
      <point x="205" y="55" type="curve" smooth="yes"/>
      <point x="205" y="92"/>
      <point x="175" y="123"/>
      <point x="138" y="123" type="curve" smooth="yes"/>
      <point x="100" y="123"/>
      <point x="70" y="92"/>
      <point x="70" y="55" type="curve" smooth="yes"/>
      <point x="70" y="18"/>
      <point x="100" y="-11"/>
    </contour>
    <contour>
      <point x="414" y="-11" type="curve" smooth="yes"/>
      <point x="451" y="-11"/>
      <point x="481" y="18"/>
      <point x="481" y="55" type="curve" smooth="yes"/>
      <point x="481" y="92"/>
      <point x="451" y="123"/>
      <point x="414" y="123" type="curve" smooth="yes"/>
      <point x="376" y="123"/>
      <point x="346" y="92"/>
      <point x="346" y="55" type="curve" smooth="yes"/>
      <point x="346" y="18"/>
      <point x="376" y="-11"/>
    </contour>
    <contour>
      <point x="690" y="-11" type="curve" smooth="yes"/>
      <point x="727" y="-11"/>
      <point x="757" y="18"/>
      <point x="757" y="55" type="curve" smooth="yes"/>
      <point x="757" y="92"/>
      <point x="727" y="123"/>
      <point x="690" y="123" type="curve" smooth="yes"/>
      <point x="652" y="123"/>
      <point x="622" y="92"/>
      <point x="622" y="55" type="curve" smooth="yes"/>
      <point x="622" y="18"/>
      <point x="652" y="-11"/>
    </contour>
  </outline>
</glyph>
<glyph name="guilsinglright" format="2">
  <advance width="266"/>
  <unicode hex="203A"/>
  <outline>
    <contour>
      <point x="48" y="420" type="line"/>
      <point x="24" y="394" type="line"/>
      <point x="180" y="211" type="line"/>
      <point x="180" y="253" type="line"/>
      <point x="24" y="69" type="line"/>
      <point x="48" y="44" type="line"/>
      <point x="240" y="207" type="line"/>
      <point x="240" y="257" type="line"/>
    </contour>
  </outline>
</glyph>
<glyph name="Omega" format="2">
  <advance width="665"/>
  <unicode hex="2126"/>
  <outline>
    <contour>
      <point x="38" y="0" type="line"/>
      <point x="285" y="0" type="line"/>
      <point x="289" y="116" type="line"/>
      <point x="207" y="161"/>
      <point x="155" y="231"/>
      <point x="155" y="356" type="curve" smooth="yes"/>
      <point x="155" y="494"/>
      <point x="213" y="581"/>
      <point x="332" y="581" type="curve" smooth="yes"/>
      <point x="448" y="581"/>
      <point x="511" y="502"/>
      <point x="511" y="356" type="curve" smooth="yes"/>
      <point x="511" y="253"/>
      <point x="468" y="161"/>
      <point x="374" y="116" type="curve"/>
      <point x="379" y="0" type="line"/>
      <point x="625" y="0" type="line"/>
      <point x="643" y="159" type="line"/>
      <point x="591" y="159" type="line"/>
      <point x="557" y="45" type="line"/>
      <point x="592" y="71" type="line"/>
      <point x="394" y="71" type="line"/>
      <point x="424" y="44" type="line"/>
      <point x="421" y="89" type="line"/>
      <point x="547" y="146"/>
      <point x="616" y="253"/>
      <point x="616" y="363" type="curve" smooth="yes"/>
      <point x="616" y="517"/>
      <point x="495" y="629"/>
      <point x="332" y="629" type="curve" smooth="yes"/>
      <point x="173" y="629"/>
      <point x="49" y="522"/>
      <point x="49" y="354" type="curve" smooth="yes"/>
      <point x="49" y="223"/>
      <point x="132" y="134"/>
      <point x="241" y="89" type="curve"/>
      <point x="239" y="44" type="line"/>
      <point x="268" y="71" type="line"/>
      <point x="71" y="71" type="line"/>
      <point x="107" y="45" type="line"/>
      <point x="73" y="159" type="line"/>
      <point x="21" y="159" type="line"/>
    </contour>
  </outline>
</glyph>
<glyph name="radical" format="2">
  <advance width="515"/>
  <unicode hex="221A"/>
  <outline>
    <contour>
      <point x="111" y="305" type="line"/>
      <point x="262" y="-92" type="line"/>
      <point x="312" y="-92" type="line"/>
      <point x="509" y="718" type="line"/>
      <point x="434" y="718" type="line"/>
      <point x="282" y="-45" type="line"/>
      <point x="317" y="-40" type="line"/>
      <point x="185" y="328" type="line"/>
      <point x="38" y="328" type="line"/>
      <point x="38" y="276" type="line"/>
      <point x="138" y="276" type="line"/>
    </contour>
  </outline>
</glyph>
<glyph name="notequal" format="2">
  <advance width="489"/>
  <unicode hex="2260"/>
  <outline>
    <contour>
      <point x="119" y="50" type="line"/>
      <point x="393" y="537" type="line"/>
      <point x="362" y="553" type="line"/>
      <point x="87" y="66" type="line"/>
    </contour>
    <contour>
      <point x="462" y="182" type="line"/>
      <point x="462" y="238" type="line"/>
      <point x="26" y="238" type="line"/>
      <point x="26" y="182" type="line"/>
    </contour>
    <contour>
      <point x="462" y="367" type="line"/>
      <point x="462" y="423" type="line"/>
      <point x="26" y="423" type="line"/>
      <point x="26" y="367" type="line"/>
    </contour>
  </outline>
</glyph>
<glyph name="lozenge" format="2">
  <advance width="538"/>
  <unicode hex="25CA"/>
  <outline>
    <contour>
      <point x="403" y="299" type="line"/>
      <point x="268" y="39" type="line"/>
      <point x="134" y="299" type="line"/>
      <point x="268" y="554" type="line"/>
    </contour>
    <contour>
      <point x="468" y="299" type="line"/>
      <point x="276" y="646" type="line"/>
      <point x="261" y="646" type="line"/>
      <point x="69" y="299" type="line"/>
      <point x="261" y="-52" type="line"/>
      <point x="276" y="-52" type="line"/>
    </contour>
  </outline>
</glyph>
<glyph name="uniA4D5" format="2">
  <advance width="548"/>
  <unicode hex="A4D5"/>
  <outline>
    <contour>
      <point x="52" y="0" type="line"/>
      <point x="496" y="0" type="line"/>
      <point x="496" y="80" type="line"/>
      <point x="316" y="80" type="line"/>
      <point x="316" y="530" type="line"/>
      <point x="232" y="530" type="line"/>
      <point x="232" y="80" type="line"/>
      <point x="52" y="80" type="line"/>
    </contour>
  </outline>
</glyph>
<glyph name="uniA4E1" format="2">
  <advance width="446"/>
  <unicode hex="A4E1"/>
  <outline>
    <contour>
      <point x="64" y="0" type="line"/>
      <point x="394" y="0" type="line"/>
      <point x="394" y="80" type="line"/>
      <point x="148" y="80" type="line"/>
      <point x="148" y="530" type="line"/>
      <point x="64" y="530" type="line"/>
    </contour>
  </outline>
</glyph>
<glyph name="uniA4E5" format="2">
  <advance width="590"/>
  <unicode hex="A4E5"/>
  <outline>
    <contour>
      <point x="48" y="0" type="line"/>
      <point x="138" y="0" type="line"/>
      <point x="311" y="464" type="line"/>
      <point x="279" y="464" type="line"/>
      <point x="452" y="0" type="line"/>
      <point x="542" y="0" type="line"/>
      <point x="340" y="530" type="line"/>
      <point x="250" y="530" type="line"/>
    </contour>
  </outline>
</glyph>
<glyph name="uniA4FE" format="2">
  <advance width="570"/>
  <unicode hex="A4FE"/>
  <outline>
    <component base="uniA4F8" xOffset="310"/>
    <contour>
      <point x="72" y="210" type="line"/>
      <point x="350" y="210" type="line"/>
      <point x="350" y="290" type="line"/>
      <point x="72" y="290" type="line"/>
    </contour>
  </outline>
</glyph>
